<svg xmlns="http://www.w3.org/2000/svg" xmlns:xlink="http://www.w3.org/1999/xlink" contentStyleType="text/css" data-diagram-type="CLASS" height="787.2px" preserveAspectRatio="none" style="width:2416px;height:787px;background:#FFFFFF;" version="1.1" viewBox="0 0 2416 787" width="2416.2px" zoomAndPan="magnify"><defs/><g><!--cluster core--><g class="cluster" data-entity="core" data-source-line="1" data-uid="ent0003" id="cluster_core"><path d="M46.5,3.6082 L64.8434,3.6082 A2.25,2.25 0 0 1 66.3434,5.1082 L70.5434,18.3809 L340.5,18.3809 A1.5,1.5 0 0 1 342,19.8809 L342,485.1082 A1.5,1.5 0 0 1 340.5,486.6082 L46.5,486.6082 A1.5,1.5 0 0 1 45,485.1082 L45,5.1082 A1.5,1.5 0 0 1 46.5,3.6082" fill="none" style="stroke:#000000;stroke-width:0.9;"/><line style="stroke:#000000;stroke-width:0.9;" x1="45" x2="70.5434" y1="18.3809" y2="18.3809"/><text fill="#000000" font-family="sans-serif" font-size="8.4" font-weight="bold" lengthAdjust="spacing" textLength="17.7434" x="47.4" y="13.8727">core</text></g><!--cluster sort_enums--><g class="cluster" data-entity="sort_enums" data-source-line="21" data-uid="ent0005" id="cluster_sort_enums"><path d="M357.9,76.2082 L406.115,76.2082 A2.25,2.25 0 0 1 407.615,77.7082 L411.815,90.9809 L572.1,90.9809 A1.5,1.5 0 0 1 573.6,92.4809 L573.6,417.9082 A1.5,1.5 0 0 1 572.1,419.4082 L357.9,419.4082 A1.5,1.5 0 0 1 356.4,417.9082 L356.4,77.7082 A1.5,1.5 0 0 1 357.9,76.2082" fill="none" style="stroke:#000000;stroke-width:0.9;"/><line style="stroke:#000000;stroke-width:0.9;" x1="356.4" x2="411.815" y1="90.9809" y2="90.9809"/><text fill="#000000" font-family="sans-serif" font-size="8.4" font-weight="bold" lengthAdjust="spacing" textLength="47.615" x="358.8" y="86.4727">sort_enums</text></g><!--cluster archive--><g class="cluster" data-entity="archive" data-source-line="26" data-uid="ent0007" id="cluster_archive"><path d="M589.5,65.1082 L619.5205,65.1082 A2.25,2.25 0 0 1 621.0205,66.6082 L625.2205,79.8809 L1383.3,79.8809 A1.5,1.5 0 0 1 1384.8,81.3809 L1384.8,446.1082 A1.5,1.5 0 0 1 1383.3,447.6082 L589.5,447.6082 A1.5,1.5 0 0 1 588,446.1082 L588,66.6082 A1.5,1.5 0 0 1 589.5,65.1082" fill="none" style="stroke:#000000;stroke-width:0.9;"/><line style="stroke:#000000;stroke-width:0.9;" x1="588" x2="625.2205" y1="79.8809" y2="79.8809"/><text fill="#000000" font-family="sans-serif" font-size="8.4" font-weight="bold" lengthAdjust="spacing" textLength="29.4205" x="590.4" y="75.3727">archive</text></g><!--cluster manager--><g class="cluster" data-entity="manager" data-source-line="50" data-uid="ent0010" id="cluster_manager"><path d="M5.1,501.0082 L40.715,501.0082 A2.25,2.25 0 0 1 42.215,502.5082 L46.415,515.7809 L440.7,515.7809 A1.5,1.5 0 0 1 442.2,517.2809 L442.2,781.5082 A1.5,1.5 0 0 1 440.7,783.0082 L5.1,783.0082 A1.5,1.5 0 0 1 3.6,781.5082 L3.6,502.5082 A1.5,1.5 0 0 1 5.1,501.0082" fill="none" style="stroke:#000000;stroke-width:0.9;"/><line style="stroke:#000000;stroke-width:0.9;" x1="3.6" x2="46.415" y1="515.7809" y2="515.7809"/><text fill="#000000" font-family="sans-serif" font-size="8.4" font-weight="bold" lengthAdjust="spacing" textLength="35.015" x="6" y="511.2727">manager</text></g><!--cluster status_enums--><g class="cluster" data-entity="status_enums" data-source-line="89" data-uid="ent0015" id="cluster_status_enums"><path d="M458.1,534.6082 L515.1867,534.6082 A2.25,2.25 0 0 1 516.6867,536.1082 L520.8867,549.3809 L632.1,549.3809 A1.5,1.5 0 0 1 633.6,550.8809 L633.6,764.7082 A1.5,1.5 0 0 1 632.1,766.2082 L458.1,766.2082 A1.5,1.5 0 0 1 456.6,764.7082 L456.6,536.1082 A1.5,1.5 0 0 1 458.1,534.6082" fill="none" style="stroke:#000000;stroke-width:0.9;"/><line style="stroke:#000000;stroke-width:0.9;" x1="456.6" x2="520.8867" y1="549.3809" y2="549.3809"/><text fill="#000000" font-family="sans-serif" font-size="8.4" font-weight="bold" lengthAdjust="spacing" textLength="56.4867" x="459" y="544.8727">status_enums</text></g><!--cluster catalog--><g class="cluster" data-entity="catalog" data-source-line="106" data-uid="ent0018" id="cluster_catalog"><path d="M1400.7,76.2082 L1430.7082,76.2082 A2.25,2.25 0 0 1 1432.2082,77.7082 L1436.4082,90.9809 L1929.3,90.9809 A1.5,1.5 0 0 1 1930.8,92.4809 L1930.8,434.7082 A1.5,1.5 0 0 1 1929.3,436.2082 L1400.7,436.2082 A1.5,1.5 0 0 1 1399.2,434.7082 L1399.2,77.7082 A1.5,1.5 0 0 1 1400.7,76.2082" fill="none" style="stroke:#000000;stroke-width:0.9;"/><line style="stroke:#000000;stroke-width:0.9;" x1="1399.2" x2="1436.4082" y1="90.9809" y2="90.9809"/><text fill="#000000" font-family="sans-serif" font-size="8.4" font-weight="bold" lengthAdjust="spacing" textLength="29.4082" x="1401.6" y="86.4727">catalog</text></g><!--cluster org--><g class="cluster" data-entity="org" data-source-line="126" data-uid="ent0021" id="cluster_org"><path d="M1946.7,60.3082 L1960.8311,60.3082 A2.25,2.25 0 0 1 1962.3311,61.8082 L1966.5311,75.0809 L2075.7,75.0809 A1.5,1.5 0 0 1 2077.2,76.5809 L2077.2,172.2082 A1.5,1.5 0 0 1 2075.7,173.7082 L1946.7,173.7082 A1.5,1.5 0 0 1 1945.2,172.2082 L1945.2,61.8082 A1.5,1.5 0 0 1 1946.7,60.3082" fill="none" style="stroke:#000000;stroke-width:0.9;"/><line style="stroke:#000000;stroke-width:0.9;" x1="1945.2" x2="1966.5311" y1="75.0809" y2="75.0809"/><text fill="#000000" font-family="sans-serif" font-size="8.4" font-weight="bold" lengthAdjust="spacing" textLength="13.5311" x="1947.6" y="70.5727">org</text></g><!--cluster example--><g class="cluster" data-entity="example" data-source-line="126" data-uid="ent0022" id="cluster_example"><path d="M1961.1,87.3082 L1995.3205,87.3082 A2.25,2.25 0 0 1 1996.8205,88.8082 L2001.0205,102.0809 L2061.3,102.0809 A1.5,1.5 0 0 1 2062.8,103.5809 L2062.8,157.8082 A1.5,1.5 0 0 1 2061.3,159.3082 L1961.1,159.3082 A1.5,1.5 0 0 1 1959.6,157.8082 L1959.6,88.8082 A1.5,1.5 0 0 1 1961.1,87.3082" fill="none" style="stroke:#000000;stroke-width:0.9;"/><line style="stroke:#000000;stroke-width:0.9;" x1="1959.6" x2="2001.0205" y1="102.0809" y2="102.0809"/><text fill="#000000" font-family="sans-serif" font-size="8.4" font-weight="bold" lengthAdjust="spacing" textLength="33.6205" x="1962" y="97.5727">example</text></g><!--cluster time--><g class="cluster" data-entity="time" data-source-line="188" data-uid="ent0030" id="cluster_time"><path d="M2093.1,59.4082 L2110.9717,59.4082 A2.25,2.25 0 0 1 2112.4717,60.9082 L2116.6717,74.1809 L2166.9,74.1809 A1.5,1.5 0 0 1 2168.4,75.6809 L2168.4,185.7082 A1.5,1.5 0 0 1 2166.9,187.2082 L2093.1,187.2082 A1.5,1.5 0 0 1 2091.6,185.7082 L2091.6,60.9082 A1.5,1.5 0 0 1 2093.1,59.4082" fill="none" style="stroke:#000000;stroke-width:0.9;"/><line style="stroke:#000000;stroke-width:0.9;" x1="2091.6" x2="2116.6717" y1="74.1809" y2="74.1809"/><text fill="#000000" font-family="sans-serif" font-size="8.4" font-weight="bold" lengthAdjust="spacing" textLength="17.2717" x="2094" y="69.6727">time</text></g><!--cluster store--><g class="cluster" data-entity="store" data-source-line="203" data-uid="ent0033" id="cluster_store"><path d="M2184.3,3.6082 L2205.4406,3.6082 A2.25,2.25 0 0 1 2206.9406,5.1082 L2211.1406,18.3809 L2410.5,18.3809 A1.5,1.5 0 0 1 2412,19.8809 L2412,241.5082 A1.5,1.5 0 0 1 2410.5,243.0082 L2184.3,243.0082 A1.5,1.5 0 0 1 2182.8,241.5082 L2182.8,5.1082 A1.5,1.5 0 0 1 2184.3,3.6082" fill="none" style="stroke:#000000;stroke-width:0.9;"/><line style="stroke:#000000;stroke-width:0.9;" x1="2182.8" x2="2211.1406" y1="18.3809" y2="18.3809"/><text fill="#000000" font-family="sans-serif" font-size="8.4" font-weight="bold" lengthAdjust="spacing" textLength="20.5406" x="2185.2" y="13.8727">store</text></g><!--class Order--><g class="entity" data-entity="Order" data-source-line="1" data-uid="ent0002" id="entity_Order"><rect fill="#F1F1F1" height="207.5625" rx="1.5" ry="1.5" style="stroke:#181818;stroke-width:0.3;" width="127.1625" x="54.6" y="25.8082"/><ellipse cx="104.8954" cy="35.4082" fill="#ADD1B2" rx="6.6" ry="6.6" style="stroke:#181818;stroke-width:0.6;"/><path d="M106.5548,32.9332 Q106.6485,32.802 106.761,32.7363 Q106.8735,32.6707 107.0048,32.6707 Q107.2298,32.6707 107.3704,32.8301 Q107.511,32.9801 107.511,33.3457 L107.511,34.2176 Q107.511,34.5832 107.3704,34.7426 Q107.2298,34.902 107.0048,34.902 Q106.7985,34.902 106.6767,34.7801 Q106.5548,34.6676 106.4892,34.3582 Q106.461,34.1426 106.3485,34.0301 Q106.1517,33.8051 105.786,33.6738 Q105.4204,33.5426 105.0454,33.5426 Q104.586,33.5426 104.2017,33.7395 Q103.8267,33.9363 103.5267,34.3863 Q103.236,34.8363 103.236,35.4551 L103.236,36.1113 Q103.236,36.852 103.7704,37.3488 Q104.3048,37.8363 105.261,37.8363 Q105.8235,37.8363 106.2173,37.6863 Q106.4517,37.5926 106.7048,37.3301 Q106.8642,37.1707 106.9485,37.1238 Q107.0423,37.077 107.1642,37.077 Q107.361,37.077 107.511,37.2363 Q107.6704,37.3863 107.6704,37.5926 Q107.6704,37.7988 107.4642,38.0426 Q107.1642,38.3895 106.686,38.5863 Q106.0392,38.8582 105.261,38.8582 Q104.3517,38.8582 103.6298,38.4832 Q103.0392,38.1832 102.6267,37.5457 Q102.2142,36.8988 102.2142,36.1301 L102.2142,35.4363 Q102.2142,34.6395 102.5798,33.9551 Q102.9548,33.2613 103.611,32.8957 Q104.2673,32.5207 105.0079,32.5207 Q105.4485,32.5207 105.8329,32.6238 Q106.2267,32.7176 106.5548,32.9332 Z " fill="#000000"/><text fill="#000000" font-family="sans-serif" font-size="8.4" lengthAdjust="spacing" textLength="21.4717" x="117.1954" y="38.8863">Order</text><line style="stroke:#181818;stroke-width:0.3;" x1="55.2" x2="181.1625" y1="45.0082" y2="45.0082"/><rect fill="none" height="3.6" style="stroke:#C82930;stroke-width:0.6;" width="3.6" x="59.4" y="52.0945"/><text fill="#000000" font-family="sans-serif" font-size="8.4" lengthAdjust="spacing" textLength="70.0301" x="66.6" y="56.4727">OrderStatus status</text><rect fill="none" height="3.6" style="stroke:#C82930;stroke-width:0.6;" width="3.6" x="59.4" y="63.2672"/><text fill="#000000" font-family="sans-serif" font-size="8.4" lengthAdjust="spacing" textLength="17.7434" x="66.6" y="67.6453">int id</text><rect fill="none" height="3.6" style="stroke:#C82930;stroke-width:0.6;" width="3.6" x="59.4" y="74.4398"/><text fill="#000000" font-family="sans-serif" font-size="8.4" lengthAdjust="spacing" textLength="53.2178" x="66.6" y="78.818">long startTime</text><rect fill="none" height="3.6" style="stroke:#C82930;stroke-width:0.6;" width="3.6" x="59.4" y="85.6125"/><text fill="#000000" font-family="sans-serif" font-size="8.4" lengthAdjust="spacing" textLength="77.5031" x="66.6" y="89.9906">long completionTime</text><rect fill="none" height="3.6" style="stroke:#C82930;stroke-width:0.6;" width="3.6" x="59.4" y="96.7852"/><text fill="#000000" font-family="sans-serif" font-size="8.4" lengthAdjust="spacing" textLength="36.426" x="66.6" y="101.1633">int bookId</text><rect fill="none" height="3.6" style="stroke:#C82930;stroke-width:0.6;" width="3.6" x="59.4" y="107.9578"/><text fill="#000000" font-family="sans-serif" font-size="8.4" lengthAdjust="spacing" textLength="77.5113" x="66.6" y="112.3359">String phoneNumber</text><rect fill="none" height="3.6" style="stroke:#C82930;stroke-width:0.6;" width="3.6" x="59.4" y="119.1305"/><text fill="#000000" font-family="sans-serif" font-size="8.4" lengthAdjust="spacing" textLength="92.8963" x="66.6" y="123.5086">BigDecimal deliveryPrice</text><line style="stroke:#181818;stroke-width:0.3;" x1="55.2" x2="181.1625" y1="128.0168" y2="128.0168"/><ellipse cx="61.2" cy="136.9031" fill="#84BE84" rx="1.8" ry="1.8" style="stroke:#038048;stroke-width:0.6;"/><text fill="#000000" font-family="sans-serif" font-size="8.4" lengthAdjust="spacing" textLength="88.7045" x="66.6" y="139.4813">OrderStatus getStatus()</text><ellipse cx="61.2" cy="148.0758" fill="#84BE84" rx="1.8" ry="1.8" style="stroke:#038048;stroke-width:0.6;"/><text fill="#000000" font-family="sans-serif" font-size="8.4" lengthAdjust="spacing" textLength="95.7141" x="66.6" y="150.6539">String getPhoneNumber()</text><ellipse cx="61.2" cy="159.2484" fill="#84BE84" rx="1.8" ry="1.8" style="stroke:#038048;stroke-width:0.6;"/><text fill="#000000" font-family="sans-serif" font-size="8.4" lengthAdjust="spacing" textLength="103.6424" x="66.6" y="161.8266">void setStatus(OrderStatus)</text><ellipse cx="61.2" cy="170.4211" fill="#84BE84" rx="1.8" ry="1.8" style="stroke:#038048;stroke-width:0.6;"/><text fill="#000000" font-family="sans-serif" font-size="8.4" lengthAdjust="spacing" textLength="35.4826" x="66.6" y="172.9992">int getId()</text><ellipse cx="61.2" cy="181.5938" fill="#84BE84" rx="1.8" ry="1.8" style="stroke:#038048;stroke-width:0.6;"/><text fill="#000000" font-family="sans-serif" font-size="8.4" lengthAdjust="spacing" textLength="111.5625" x="66.6" y="184.1719">BigDecimal getDeliveryPrice()</text><ellipse cx="61.2" cy="192.7664" fill="#84BE84" rx="1.8" ry="1.8" style="stroke:#038048;stroke-width:0.6;"/><text fill="#000000" font-family="sans-serif" font-size="8.4" lengthAdjust="spacing" textLength="54.6287" x="66.6" y="195.3445">int getBookId()</text><ellipse cx="61.2" cy="203.9391" fill="#84BE84" rx="1.8" ry="1.8" style="stroke:#038048;stroke-width:0.6;"/><text fill="#000000" font-family="sans-serif" font-size="8.4" lengthAdjust="spacing" textLength="58.8205" x="66.6" y="206.5172">String toString()</text><ellipse cx="61.2" cy="215.1117" fill="#84BE84" rx="1.8" ry="1.8" style="stroke:#038048;stroke-width:0.6;"/><text fill="#000000" font-family="sans-serif" font-size="8.4" lengthAdjust="spacing" textLength="71.8922" x="66.6" y="217.6898">long getStartTime()</text><ellipse cx="61.2" cy="226.2844" fill="#84BE84" rx="1.8" ry="1.8" style="stroke:#038048;stroke-width:0.6;"/><text fill="#000000" font-family="sans-serif" font-size="8.4" lengthAdjust="spacing" textLength="96.641" x="66.6" y="228.8625">long getCompletionTime()</text></g><!--class Request--><g class="entity" data-entity="Request" data-source-line="94" data-uid="ent0016" id="entity_Request"><rect fill="#F1F1F1" height="118.1812" rx="1.5" ry="1.5" style="stroke:#181818;stroke-width:0.3;" width="129.0574" x="203.1" y="70.5082"/><ellipse cx="249.4354" cy="80.1082" fill="#ADD1B2" rx="6.6" ry="6.6" style="stroke:#181818;stroke-width:0.6;"/><path d="M251.0947,77.6332 Q251.1885,77.502 251.301,77.4363 Q251.4135,77.3707 251.5447,77.3707 Q251.7697,77.3707 251.9104,77.5301 Q252.051,77.6801 252.051,78.0457 L252.051,78.9176 Q252.051,79.2832 251.9104,79.4426 Q251.7697,79.602 251.5447,79.602 Q251.3385,79.602 251.2166,79.4801 Q251.0947,79.3676 251.0291,79.0582 Q251.001,78.8426 250.8885,78.7301 Q250.6916,78.5051 250.326,78.3738 Q249.9604,78.2426 249.5854,78.2426 Q249.126,78.2426 248.7416,78.4395 Q248.3666,78.6363 248.0666,79.0863 Q247.776,79.5363 247.776,80.1551 L247.776,80.8113 Q247.776,81.552 248.3104,82.0488 Q248.8447,82.5363 249.801,82.5363 Q250.3635,82.5363 250.7572,82.3863 Q250.9916,82.2926 251.2447,82.0301 Q251.4041,81.8707 251.4885,81.8238 Q251.5822,81.777 251.7041,81.777 Q251.901,81.777 252.051,81.9363 Q252.2104,82.0863 252.2104,82.2926 Q252.2104,82.4988 252.0041,82.7426 Q251.7041,83.0895 251.226,83.2863 Q250.5791,83.5582 249.801,83.5582 Q248.8916,83.5582 248.1697,83.1832 Q247.5791,82.8832 247.1666,82.2457 Q246.7541,81.5988 246.7541,80.8301 L246.7541,80.1363 Q246.7541,79.3395 247.1197,78.6551 Q247.4947,77.9613 248.151,77.5957 Q248.8072,77.2207 249.5479,77.2207 Q249.9885,77.2207 250.3729,77.3238 Q250.7666,77.4176 251.0947,77.6332 Z " fill="#000000"/><text fill="#000000" font-family="sans-serif" font-size="8.4" lengthAdjust="spacing" textLength="31.2867" x="261.7354" y="83.5863">Request</text><line style="stroke:#181818;stroke-width:0.3;" x1="203.7" x2="331.5574" y1="89.7082" y2="89.7082"/><rect fill="none" height="3.6" style="stroke:#C82930;stroke-width:0.6;" width="3.6" x="207.9" y="96.7945"/><text fill="#000000" font-family="sans-serif" font-size="8.4" lengthAdjust="spacing" textLength="79.8451" x="215.1" y="101.1727">RequestStatus status</text><rect fill="none" height="3.6" style="stroke:#C82930;stroke-width:0.6;" width="3.6" x="207.9" y="107.9672"/><text fill="#000000" font-family="sans-serif" font-size="8.4" lengthAdjust="spacing" textLength="17.7434" x="215.1" y="112.3453">int id</text><rect fill="none" height="3.6" style="stroke:#C82930;stroke-width:0.6;" width="3.6" x="207.9" y="119.1398"/><text fill="#000000" font-family="sans-serif" font-size="8.4" lengthAdjust="spacing" textLength="58.3611" x="215.1" y="123.518">String bookTitle</text><line style="stroke:#181818;stroke-width:0.3;" x1="203.7" x2="331.5574" y1="128.0262" y2="128.0262"/><ellipse cx="209.7" cy="136.9125" fill="#84BE84" rx="1.8" ry="1.8" style="stroke:#038048;stroke-width:0.6;"/><text fill="#000000" font-family="sans-serif" font-size="8.4" lengthAdjust="spacing" textLength="98.5195" x="215.1" y="139.4906">RequestStatus getStatus()</text><ellipse cx="209.7" cy="148.0852" fill="#84BE84" rx="1.8" ry="1.8" style="stroke:#038048;stroke-width:0.6;"/><text fill="#000000" font-family="sans-serif" font-size="8.4" lengthAdjust="spacing" textLength="113.4574" x="215.1" y="150.6633">void setStatus(RequestStatus)</text><ellipse cx="209.7" cy="159.2578" fill="#84BE84" rx="1.8" ry="1.8" style="stroke:#038048;stroke-width:0.6;"/><text fill="#000000" font-family="sans-serif" font-size="8.4" lengthAdjust="spacing" textLength="35.4826" x="215.1" y="161.8359">int getId()</text><ellipse cx="209.7" cy="170.4305" fill="#84BE84" rx="1.8" ry="1.8" style="stroke:#038048;stroke-width:0.6;"/><text fill="#000000" font-family="sans-serif" font-size="8.4" lengthAdjust="spacing" textLength="76.5639" x="215.1" y="173.0086">String getBookTitle()</text><ellipse cx="209.7" cy="181.6031" fill="#84BE84" rx="1.8" ry="1.8" style="stroke:#038048;stroke-width:0.6;"/><text fill="#000000" font-family="sans-serif" font-size="8.4" lengthAdjust="spacing" textLength="58.8205" x="215.1" y="184.1813">String toString()</text></g><!--class Book--><g class="entity" data-entity="Book" data-source-line="135" data-uid="ent0024" id="entity_Book"><rect fill="#F1F1F1" height="207.5625" rx="1.5" ry="1.5" style="stroke:#181818;stroke-width:0.3;" width="116.9168" x="59.7" y="269.4082"/><ellipse cx="106.0354" cy="279.0082" fill="#ADD1B2" rx="6.6" ry="6.6" style="stroke:#181818;stroke-width:0.6;"/><path d="M107.6947,276.5332 Q107.7885,276.402 107.901,276.3363 Q108.0135,276.2707 108.1447,276.2707 Q108.3697,276.2707 108.5104,276.4301 Q108.651,276.5801 108.651,276.9457 L108.651,277.8176 Q108.651,278.1832 108.5104,278.3426 Q108.3697,278.502 108.1447,278.502 Q107.9385,278.502 107.8166,278.3801 Q107.6947,278.2676 107.6291,277.9582 Q107.601,277.7426 107.4885,277.6301 Q107.2916,277.4051 106.926,277.2738 Q106.5604,277.1426 106.1854,277.1426 Q105.726,277.1426 105.3416,277.3395 Q104.9666,277.5363 104.6666,277.9863 Q104.376,278.4363 104.376,279.0551 L104.376,279.7113 Q104.376,280.452 104.9104,280.9488 Q105.4447,281.4363 106.401,281.4363 Q106.9635,281.4363 107.3572,281.2863 Q107.5916,281.1926 107.8447,280.9301 Q108.0041,280.7707 108.0885,280.7238 Q108.1822,280.677 108.3041,280.677 Q108.501,280.677 108.651,280.8363 Q108.8104,280.9863 108.8104,281.1926 Q108.8104,281.3988 108.6041,281.6426 Q108.3041,281.9895 107.826,282.1863 Q107.1791,282.4582 106.401,282.4582 Q105.4916,282.4582 104.7697,282.0832 Q104.1791,281.7832 103.7666,281.1457 Q103.3541,280.4988 103.3541,279.7301 L103.3541,279.0363 Q103.3541,278.2395 103.7197,277.5551 Q104.0947,276.8613 104.751,276.4957 Q105.4072,276.1207 106.1479,276.1207 Q106.5885,276.1207 106.9729,276.2238 Q107.3666,276.3176 107.6947,276.5332 Z " fill="#000000"/><text fill="#000000" font-family="sans-serif" font-size="8.4" lengthAdjust="spacing" textLength="19.1461" x="118.3354" y="282.4863">Book</text><line style="stroke:#181818;stroke-width:0.3;" x1="60.3" x2="176.0168" y1="288.6082" y2="288.6082"/><rect fill="none" height="3.6" style="stroke:#C82930;stroke-width:0.6;" width="3.6" x="64.5" y="295.6945"/><text fill="#000000" font-family="sans-serif" font-size="8.4" lengthAdjust="spacing" textLength="67.7045" x="71.7" y="300.0727">BookStatus status</text><rect fill="none" height="3.6" style="stroke:#C82930;stroke-width:0.6;" width="3.6" x="64.5" y="306.8672"/><text fill="#000000" font-family="sans-serif" font-size="8.4" lengthAdjust="spacing" textLength="37.3488" x="71.7" y="311.2453">String title</text><rect fill="none" height="3.6" style="stroke:#C82930;stroke-width:0.6;" width="3.6" x="64.5" y="318.0398"/><text fill="#000000" font-family="sans-serif" font-size="8.4" lengthAdjust="spacing" textLength="48.0949" x="71.7" y="322.418">String author</text><rect fill="none" height="3.6" style="stroke:#C82930;stroke-width:0.6;" width="3.6" x="64.5" y="329.2125"/><text fill="#000000" font-family="sans-serif" font-size="8.4" lengthAdjust="spacing" textLength="64.899" x="71.7" y="333.5906">String description</text><rect fill="none" height="3.6" style="stroke:#C82930;stroke-width:0.6;" width="3.6" x="64.5" y="340.3852"/><text fill="#000000" font-family="sans-serif" font-size="8.4" lengthAdjust="spacing" textLength="58.3611" x="71.7" y="344.7633">long timeStamp</text><rect fill="none" height="3.6" style="stroke:#C82930;stroke-width:0.6;" width="3.6" x="64.5" y="351.5578"/><text fill="#000000" font-family="sans-serif" font-size="8.4" lengthAdjust="spacing" textLength="63.0205" x="71.7" y="355.9359">BigDecimal price</text><rect fill="none" height="3.6" style="stroke:#C82930;stroke-width:0.6;" width="3.6" x="64.5" y="362.7305"/><text fill="#000000" font-family="sans-serif" font-size="8.4" lengthAdjust="spacing" textLength="17.7434" x="71.7" y="367.1086">int id</text><line style="stroke:#181818;stroke-width:0.3;" x1="60.3" x2="176.0168" y1="371.6168" y2="371.6168"/><ellipse cx="66.3" cy="380.5031" fill="#84BE84" rx="1.8" ry="1.8" style="stroke:#038048;stroke-width:0.6;"/><text fill="#000000" font-family="sans-serif" font-size="8.4" lengthAdjust="spacing" textLength="86.3789" x="71.7" y="383.0813">BookStatus getStatus()</text><ellipse cx="66.3" cy="391.6758" fill="#84BE84" rx="1.8" ry="1.8" style="stroke:#038048;stroke-width:0.6;"/><text fill="#000000" font-family="sans-serif" font-size="8.4" lengthAdjust="spacing" textLength="57.4178" x="71.7" y="394.2539">String getTitle()</text><ellipse cx="66.3" cy="402.8484" fill="#84BE84" rx="1.8" ry="1.8" style="stroke:#038048;stroke-width:0.6;"/><text fill="#000000" font-family="sans-serif" font-size="8.4" lengthAdjust="spacing" textLength="101.3168" x="71.7" y="405.4266">void setStatus(BookStatus)</text><ellipse cx="66.3" cy="414.0211" fill="#84BE84" rx="1.8" ry="1.8" style="stroke:#038048;stroke-width:0.6;"/><text fill="#000000" font-family="sans-serif" font-size="8.4" lengthAdjust="spacing" textLength="35.4826" x="71.7" y="416.5992">int getId()</text><ellipse cx="66.3" cy="425.1937" fill="#84BE84" rx="1.8" ry="1.8" style="stroke:#038048;stroke-width:0.6;"/><text fill="#000000" font-family="sans-serif" font-size="8.4" lengthAdjust="spacing" textLength="66.2977" x="71.7" y="427.7719">String getAuthor()</text><ellipse cx="66.3" cy="436.3664" fill="#84BE84" rx="1.8" ry="1.8" style="stroke:#038048;stroke-width:0.6;"/><text fill="#000000" font-family="sans-serif" font-size="8.4" lengthAdjust="spacing" textLength="83.5652" x="71.7" y="438.9445">String getDescription()</text><ellipse cx="66.3" cy="447.5391" fill="#84BE84" rx="1.8" ry="1.8" style="stroke:#038048;stroke-width:0.6;"/><text fill="#000000" font-family="sans-serif" font-size="8.4" lengthAdjust="spacing" textLength="78.4301" x="71.7" y="450.1172">long getTimeStamp()</text><ellipse cx="66.3" cy="458.7117" fill="#84BE84" rx="1.8" ry="1.8" style="stroke:#038048;stroke-width:0.6;"/><text fill="#000000" font-family="sans-serif" font-size="8.4" lengthAdjust="spacing" textLength="81.2232" x="71.7" y="461.2898">BigDecimal getPrice()</text><ellipse cx="66.3" cy="469.8844" fill="#84BE84" rx="1.8" ry="1.8" style="stroke:#038048;stroke-width:0.6;"/><text fill="#000000" font-family="sans-serif" font-size="8.4" lengthAdjust="spacing" textLength="58.8205" x="71.7" y="472.4625">String toString()</text></g><!--class RequestSort--><g class="entity" data-entity="RequestSort" data-source-line="21" data-uid="ent0004" id="entity_RequestSort"><rect fill="#F1F1F1" height="51.1453" rx="1.5" ry="1.5" style="stroke:#181818;stroke-width:0.3;" width="87.9885" x="366.3" y="104.1082"/><ellipse cx="385.2433" cy="113.7082" fill="#EB937F" rx="6.6" ry="6.6" style="stroke:#181818;stroke-width:0.6;"/><path d="M384.559,114.1863 L384.559,115.6863 L387.1558,115.6863 L387.1558,115.1332 Q387.1558,114.7676 387.2965,114.6082 Q387.4465,114.4488 387.6715,114.4488 Q387.8965,114.4488 388.0371,114.6082 Q388.1777,114.7676 388.1777,115.1332 L388.1777,116.7082 L383.3777,116.7082 Q383.0027,116.7082 382.8433,116.5676 Q382.6933,116.427 382.6933,116.1926 Q382.6933,115.9676 382.8527,115.827 Q383.0121,115.6863 383.3777,115.6863 L383.5371,115.6863 L383.5371,111.6926 L383.3777,111.6926 Q383.0027,111.6926 382.8433,111.552 Q382.6933,111.4113 382.6933,111.177 Q382.6933,110.952 382.8433,110.8113 Q383.0027,110.6707 383.3777,110.6707 L387.9527,110.6707 L387.9527,112.227 Q387.9527,112.5926 387.8121,112.752 Q387.6808,112.902 387.4465,112.902 Q387.2215,112.902 387.0808,112.752 Q386.9402,112.5926 386.9402,112.227 L386.9402,111.6926 L384.559,111.6926 L384.559,113.1645 L385.4496,113.1645 Q385.4496,112.7707 385.5246,112.6582 Q385.684,112.4145 385.9652,112.4145 Q386.1902,112.4145 386.3308,112.5738 Q386.4715,112.7238 386.4715,113.0895 L386.4715,114.2707 Q386.4715,114.5988 386.3965,114.7113 Q386.2371,114.9457 385.9652,114.9457 Q385.684,114.9457 385.5246,114.702 Q385.4496,114.5895 385.4496,114.1863 L384.559,114.1863 Z " fill="#000000"/><text fill="#000000" font-family="sans-serif" font-size="8.4" lengthAdjust="spacing" textLength="46.6922" x="395.853" y="117.1863">RequestSort</text><line style="stroke:#181818;stroke-width:0.3;" x1="366.9" x2="453.6885" y1="123.3082" y2="123.3082"/><ellipse cx="372.9" cy="132.1945" fill="none" rx="1.8" ry="1.8" style="stroke:#038048;stroke-width:0.6;"/><text fill="#000000" font-family="sans-serif" font-size="8.4" lengthAdjust="spacing" textLength="68.1762" x="378.3" y="134.7727">AmountAscending</text><ellipse cx="372.9" cy="143.3672" fill="none" rx="1.8" ry="1.8" style="stroke:#038048;stroke-width:0.6;"/><text fill="#000000" font-family="sans-serif" font-size="8.4" lengthAdjust="spacing" textLength="72.3885" x="378.3" y="145.9453">AlphabetAscending</text><line style="stroke:#181818;stroke-width:0.3;" x1="366.9" x2="453.6885" y1="150.4535" y2="150.4535"/></g><!--class OrderSort--><g class="entity" data-entity="OrderSort" data-source-line="73" data-uid="ent0012" id="entity_OrderSort"><rect fill="#F1F1F1" height="62.318" rx="1.5" ry="1.5" style="stroke:#181818;stroke-width:0.3;" width="88.4396" x="475.5" y="98.4082"/><ellipse cx="499.0631" cy="108.0082" fill="#EB937F" rx="6.6" ry="6.6" style="stroke:#181818;stroke-width:0.6;"/><path d="M498.3787,108.4863 L498.3787,109.9863 L500.9756,109.9863 L500.9756,109.4332 Q500.9756,109.0676 501.1163,108.9082 Q501.2663,108.7488 501.4913,108.7488 Q501.7163,108.7488 501.8569,108.9082 Q501.9975,109.0676 501.9975,109.4332 L501.9975,111.0082 L497.1975,111.0082 Q496.8225,111.0082 496.6631,110.8676 Q496.5131,110.727 496.5131,110.4926 Q496.5131,110.2676 496.6725,110.127 Q496.8319,109.9863 497.1975,109.9863 L497.3569,109.9863 L497.3569,105.9926 L497.1975,105.9926 Q496.8225,105.9926 496.6631,105.852 Q496.5131,105.7113 496.5131,105.477 Q496.5131,105.252 496.6631,105.1113 Q496.8225,104.9707 497.1975,104.9707 L501.7725,104.9707 L501.7725,106.527 Q501.7725,106.8926 501.6319,107.052 Q501.5006,107.202 501.2663,107.202 Q501.0413,107.202 500.9006,107.052 Q500.76,106.8926 500.76,106.527 L500.76,105.9926 L498.3787,105.9926 L498.3787,107.4645 L499.2694,107.4645 Q499.2694,107.0707 499.3444,106.9582 Q499.5037,106.7145 499.785,106.7145 Q500.01,106.7145 500.1506,106.8738 Q500.2913,107.0238 500.2913,107.3895 L500.2913,108.5707 Q500.2913,108.8988 500.2163,109.0113 Q500.0569,109.2457 499.785,109.2457 Q499.5037,109.2457 499.3444,109.002 Q499.2694,108.8895 499.2694,108.4863 L498.3787,108.4863 Z " fill="#000000"/><text fill="#000000" font-family="sans-serif" font-size="8.4" lengthAdjust="spacing" textLength="36.8771" x="510.6994" y="111.4863">OrderSort</text><line style="stroke:#181818;stroke-width:0.3;" x1="476.1" x2="563.3396" y1="117.6082" y2="117.6082"/><ellipse cx="482.1" cy="126.4945" fill="none" rx="1.8" ry="1.8" style="stroke:#038048;stroke-width:0.6;"/><text fill="#000000" font-family="sans-serif" font-size="8.4" lengthAdjust="spacing" textLength="72.8396" x="487.5" y="129.0727">EndTimeAscending</text><ellipse cx="482.1" cy="137.6672" fill="none" rx="1.8" ry="1.8" style="stroke:#038048;stroke-width:0.6;"/><text fill="#000000" font-family="sans-serif" font-size="8.4" lengthAdjust="spacing" textLength="58.3652" x="487.5" y="140.2453">PriceAscending</text><ellipse cx="482.1" cy="148.8398" fill="none" rx="1.8" ry="1.8" style="stroke:#038048;stroke-width:0.6;"/><text fill="#000000" font-family="sans-serif" font-size="8.4" lengthAdjust="spacing" textLength="63.041" x="487.5" y="151.418">StatusAscending</text><line style="stroke:#181818;stroke-width:0.3;" x1="476.1" x2="563.3396" y1="155.9262" y2="155.9262"/></g><!--class BookSort--><g class="entity" data-entity="BookSort" data-source-line="223" data-uid="ent0034" id="entity_BookSort"><rect fill="#F1F1F1" height="73.4906" rx="1.5" ry="1.5" style="stroke:#181818;stroke-width:0.3;" width="87.9885" x="366.3" y="336.6082"/><ellipse cx="390.7066" cy="346.2082" fill="#EB937F" rx="6.6" ry="6.6" style="stroke:#181818;stroke-width:0.6;"/><path d="M390.0222,346.6863 L390.0222,348.1863 L392.6191,348.1863 L392.6191,347.6332 Q392.6191,347.2676 392.7597,347.1082 Q392.9097,346.9488 393.1347,346.9488 Q393.3597,346.9488 393.5004,347.1082 Q393.641,347.2676 393.641,347.6332 L393.641,349.2082 L388.841,349.2082 Q388.466,349.2082 388.3066,349.0676 Q388.1566,348.927 388.1566,348.6926 Q388.1566,348.4676 388.316,348.327 Q388.4754,348.1863 388.841,348.1863 L389.0004,348.1863 L389.0004,344.1926 L388.841,344.1926 Q388.466,344.1926 388.3066,344.052 Q388.1566,343.9113 388.1566,343.677 Q388.1566,343.452 388.3066,343.3113 Q388.466,343.1707 388.841,343.1707 L393.416,343.1707 L393.416,344.727 Q393.416,345.0926 393.2754,345.252 Q393.1441,345.402 392.9097,345.402 Q392.6847,345.402 392.5441,345.252 Q392.4035,345.0926 392.4035,344.727 L392.4035,344.1926 L390.0222,344.1926 L390.0222,345.6645 L390.9129,345.6645 Q390.9129,345.2707 390.9879,345.1582 Q391.1472,344.9145 391.4285,344.9145 Q391.6535,344.9145 391.7941,345.0738 Q391.9347,345.2238 391.9347,345.5895 L391.9347,346.7707 Q391.9347,347.0988 391.8597,347.2113 Q391.7004,347.4457 391.4285,347.4457 Q391.1472,347.4457 390.9879,347.202 Q390.9129,347.0895 390.9129,346.6863 L390.0222,346.6863 Z " fill="#000000"/><text fill="#000000" font-family="sans-serif" font-size="8.4" lengthAdjust="spacing" textLength="34.5516" x="402.5303" y="349.6863">BookSort</text><line style="stroke:#181818;stroke-width:0.3;" x1="366.9" x2="453.6885" y1="355.8082" y2="355.8082"/><ellipse cx="372.9" cy="364.6945" fill="none" rx="1.8" ry="1.8" style="stroke:#038048;stroke-width:0.6;"/><text fill="#000000" font-family="sans-serif" font-size="8.4" lengthAdjust="spacing" textLength="72.3885" x="378.3" y="367.2727">AlphabetAscending</text><ellipse cx="372.9" cy="375.8672" fill="none" rx="1.8" ry="1.8" style="stroke:#038048;stroke-width:0.6;"/><text fill="#000000" font-family="sans-serif" font-size="8.4" lengthAdjust="spacing" textLength="56.9707" x="378.3" y="378.4453">DateAscending</text><ellipse cx="372.9" cy="387.0398" fill="none" rx="1.8" ry="1.8" style="stroke:#038048;stroke-width:0.6;"/><text fill="#000000" font-family="sans-serif" font-size="8.4" lengthAdjust="spacing" textLength="63.041" x="378.3" y="389.618">StatusAscending</text><ellipse cx="372.9" cy="398.2125" fill="none" rx="1.8" ry="1.8" style="stroke:#038048;stroke-width:0.6;"/><text fill="#000000" font-family="sans-serif" font-size="8.4" lengthAdjust="spacing" textLength="58.3652" x="378.3" y="400.7906">PriceAscending</text><line style="stroke:#181818;stroke-width:0.3;" x1="366.9" x2="453.6885" y1="405.2988" y2="405.2988"/></g><!--class OrderArchive--><g class="entity" data-entity="OrderArchive" data-source-line="26" data-uid="ent0006" id="entity_OrderArchive"><rect fill="#F1F1F1" height="129.3539" rx="1.5" ry="1.5" style="stroke:#181818;stroke-width:0.3;" width="242.4984" x="597.6" y="308.4082"/><ellipse cx="691.5586" cy="318.0082" fill="#ADD1B2" rx="6.6" ry="6.6" style="stroke:#181818;stroke-width:0.6;"/><path d="M693.218,315.5332 Q693.3117,315.402 693.4242,315.3363 Q693.5367,315.2707 693.668,315.2707 Q693.893,315.2707 694.0336,315.4301 Q694.1742,315.5801 694.1742,315.9457 L694.1742,316.8176 Q694.1742,317.1832 694.0336,317.3426 Q693.893,317.502 693.668,317.502 Q693.4617,317.502 693.3398,317.3801 Q693.218,317.2676 693.1523,316.9582 Q693.1242,316.7426 693.0117,316.6301 Q692.8148,316.4051 692.4492,316.2738 Q692.0836,316.1426 691.7086,316.1426 Q691.2492,316.1426 690.8648,316.3395 Q690.4898,316.5363 690.1898,316.9863 Q689.8992,317.4363 689.8992,318.0551 L689.8992,318.7113 Q689.8992,319.452 690.4336,319.9488 Q690.968,320.4363 691.9242,320.4363 Q692.4867,320.4363 692.8805,320.2863 Q693.1148,320.1926 693.368,319.9301 Q693.5273,319.7707 693.6117,319.7238 Q693.7055,319.677 693.8273,319.677 Q694.0242,319.677 694.1742,319.8363 Q694.3336,319.9863 694.3336,320.1926 Q694.3336,320.3988 694.1273,320.6426 Q693.8273,320.9895 693.3492,321.1863 Q692.7023,321.4582 691.9242,321.4582 Q691.0148,321.4582 690.293,321.0832 Q689.7023,320.7832 689.2898,320.1457 Q688.8773,319.4988 688.8773,318.7301 L688.8773,318.0363 Q688.8773,317.2395 689.243,316.5551 Q689.618,315.8613 690.2742,315.4957 Q690.9305,315.1207 691.6711,315.1207 Q692.1117,315.1207 692.4961,315.2238 Q692.8898,315.3176 693.218,315.5332 Z " fill="#000000"/><text fill="#000000" font-family="sans-serif" font-size="8.4" lengthAdjust="spacing" textLength="49.4812" x="703.8586" y="321.4863">OrderArchive</text><line style="stroke:#181818;stroke-width:0.3;" x1="598.2" x2="839.4984" y1="327.6082" y2="327.6082"/><rect fill="none" height="3.6" style="stroke:#C82930;stroke-width:0.6;" width="3.6" x="602.4" y="334.6945"/><text fill="#000000" font-family="sans-serif" font-size="8.4" lengthAdjust="spacing" textLength="226.8984" x="609.6" y="339.0727">ArrayList&lt;AbstractMap.SimpleEntry&lt;Integer,Order&gt;&gt; archive</text><line style="stroke:#181818;stroke-width:0.3;" x1="598.2" x2="839.4984" y1="343.5809" y2="343.5809"/><ellipse cx="604.2" cy="352.4672" fill="#84BE84" rx="1.8" ry="1.8" style="stroke:#038048;stroke-width:0.6;"/><text fill="#000000" font-family="sans-serif" font-size="8.4" lengthAdjust="spacing" textLength="84.0205" x="609.6" y="355.0453">void sortBy(OrderSort)</text><rect fill="#F24D5C" height="3.6" style="stroke:#C82930;stroke-width:0.6;" width="3.6" x="602.4" y="361.8398"/><text fill="#000000" font-family="sans-serif" font-size="8.4" lengthAdjust="spacing" textLength="135.4008" x="609.6" y="366.218">int amountOrderedInTime(long,long)</text><rect fill="#F24D5C" height="3.6" style="stroke:#C82930;stroke-width:0.6;" width="3.6" x="602.4" y="373.0125"/><text fill="#000000" font-family="sans-serif" font-size="8.4" lengthAdjust="spacing" textLength="174.6117" x="609.6" y="377.3906">ArrayList&lt;Order&gt; getOrderedInTime(long,long)</text><ellipse cx="604.2" cy="385.9852" fill="#84BE84" rx="1.8" ry="1.8" style="stroke:#038048;stroke-width:0.6;"/><text fill="#000000" font-family="sans-serif" font-size="8.4" lengthAdjust="spacing" textLength="56.4867" x="609.6" y="388.5633">void put(Order)</text><ellipse cx="604.2" cy="397.1578" fill="#84BE84" rx="1.8" ry="1.8" style="stroke:#038048;stroke-width:0.6;"/><text fill="#000000" font-family="sans-serif" font-size="8.4" lengthAdjust="spacing" textLength="107.3789" x="609.6" y="399.7359">Optional&lt;Order&gt; remove(int)</text><ellipse cx="604.2" cy="408.3305" fill="#84BE84" rx="1.8" ry="1.8" style="stroke:#038048;stroke-width:0.6;"/><text fill="#000000" font-family="sans-serif" font-size="8.4" lengthAdjust="spacing" textLength="92.9127" x="609.6" y="410.9086">Optional&lt;Order&gt; find(int)</text><ellipse cx="604.2" cy="419.5031" fill="#84BE84" rx="1.8" ry="1.8" style="stroke:#038048;stroke-width:0.6;"/><text fill="#000000" font-family="sans-serif" font-size="8.4" lengthAdjust="spacing" textLength="49.0137" x="609.6" y="422.0813">void printAll()</text><ellipse cx="604.2" cy="430.6758" fill="#84BE84" rx="1.8" ry="1.8" style="stroke:#038048;stroke-width:0.6;"/><text fill="#000000" font-family="sans-serif" font-size="8.4" lengthAdjust="spacing" textLength="93.3639" x="609.6" y="433.2539">ArrayList&lt;Order&gt; getAll()</text></g><!--class BookArchive--><g class="entity" data-entity="BookArchive" data-source-line="39" data-uid="ent0008" id="entity_BookArchive"><rect fill="#F1F1F1" height="107.0086" rx="1.5" ry="1.5" style="stroke:#181818;stroke-width:0.3;" width="240.1729" x="861" y="319.8082"/><ellipse cx="954.9586" cy="329.4082" fill="#ADD1B2" rx="6.6" ry="6.6" style="stroke:#181818;stroke-width:0.6;"/><path d="M956.618,326.9332 Q956.7117,326.802 956.8242,326.7363 Q956.9367,326.6707 957.068,326.6707 Q957.293,326.6707 957.4336,326.8301 Q957.5742,326.9801 957.5742,327.3457 L957.5742,328.2176 Q957.5742,328.5832 957.4336,328.7426 Q957.293,328.902 957.068,328.902 Q956.8617,328.902 956.7398,328.7801 Q956.618,328.6676 956.5523,328.3582 Q956.5242,328.1426 956.4117,328.0301 Q956.2148,327.8051 955.8492,327.6738 Q955.4836,327.5426 955.1086,327.5426 Q954.6492,327.5426 954.2648,327.7395 Q953.8898,327.9363 953.5898,328.3863 Q953.2992,328.8363 953.2992,329.4551 L953.2992,330.1113 Q953.2992,330.852 953.8336,331.3488 Q954.368,331.8363 955.3242,331.8363 Q955.8867,331.8363 956.2805,331.6863 Q956.5148,331.5926 956.768,331.3301 Q956.9273,331.1707 957.0117,331.1238 Q957.1055,331.077 957.2273,331.077 Q957.4242,331.077 957.5742,331.2363 Q957.7336,331.3863 957.7336,331.5926 Q957.7336,331.7988 957.5273,332.0426 Q957.2273,332.3895 956.7492,332.5863 Q956.1023,332.8582 955.3242,332.8582 Q954.4148,332.8582 953.693,332.4832 Q953.1023,332.1832 952.6898,331.5457 Q952.2773,330.8988 952.2773,330.1301 L952.2773,329.4363 Q952.2773,328.6395 952.643,327.9551 Q953.018,327.2613 953.6742,326.8957 Q954.3305,326.5207 955.0711,326.5207 Q955.5117,326.5207 955.8961,326.6238 Q956.2898,326.7176 956.618,326.9332 Z " fill="#000000"/><text fill="#000000" font-family="sans-serif" font-size="8.4" lengthAdjust="spacing" textLength="47.1557" x="967.2586" y="332.8863">BookArchive</text><line style="stroke:#181818;stroke-width:0.3;" x1="861.6" x2="1100.5729" y1="339.0082" y2="339.0082"/><rect fill="none" height="3.6" style="stroke:#C82930;stroke-width:0.6;" width="3.6" x="865.8" y="346.0945"/><text fill="#000000" font-family="sans-serif" font-size="8.4" lengthAdjust="spacing" textLength="224.5729" x="873" y="350.4727">ArrayList&lt;AbstractMap.SimpleEntry&lt;Integer,Book&gt;&gt; archive</text><line style="stroke:#181818;stroke-width:0.3;" x1="861.6" x2="1100.5729" y1="354.9809" y2="354.9809"/><ellipse cx="867.6" cy="363.8672" fill="#84BE84" rx="1.8" ry="1.8" style="stroke:#038048;stroke-width:0.6;"/><text fill="#000000" font-family="sans-serif" font-size="8.4" lengthAdjust="spacing" textLength="81.6949" x="873" y="366.4453">void sortBy(BookSort)</text><ellipse cx="867.6" cy="375.0398" fill="#84BE84" rx="1.8" ry="1.8" style="stroke:#038048;stroke-width:0.6;"/><text fill="#000000" font-family="sans-serif" font-size="8.4" lengthAdjust="spacing" textLength="54.1611" x="873" y="377.618">void put(Book)</text><ellipse cx="867.6" cy="386.2125" fill="#84BE84" rx="1.8" ry="1.8" style="stroke:#038048;stroke-width:0.6;"/><text fill="#000000" font-family="sans-serif" font-size="8.4" lengthAdjust="spacing" textLength="105.0533" x="873" y="388.7906">Optional&lt;Book&gt; remove(int)</text><ellipse cx="867.6" cy="397.3852" fill="#84BE84" rx="1.8" ry="1.8" style="stroke:#038048;stroke-width:0.6;"/><text fill="#000000" font-family="sans-serif" font-size="8.4" lengthAdjust="spacing" textLength="90.5871" x="873" y="399.9633">Optional&lt;Book&gt; find(int)</text><ellipse cx="867.6" cy="408.5578" fill="#84BE84" rx="1.8" ry="1.8" style="stroke:#038048;stroke-width:0.6;"/><text fill="#000000" font-family="sans-serif" font-size="8.4" lengthAdjust="spacing" textLength="49.0137" x="873" y="411.1359">void printAll()</text><ellipse cx="867.6" cy="419.7305" fill="#84BE84" rx="1.8" ry="1.8" style="stroke:#038048;stroke-width:0.6;"/><text fill="#000000" font-family="sans-serif" font-size="8.4" lengthAdjust="spacing" textLength="91.0383" x="873" y="422.3086">ArrayList&lt;Book&gt; getAll()</text></g><!--class RequestArchive--><g class="entity" data-entity="RequestArchive" data-source-line="115" data-uid="ent0019" id="entity_RequestArchive"><rect fill="#F1F1F1" height="107.0086" rx="1.5" ry="1.5" style="stroke:#181818;stroke-width:0.3;" width="252.3135" x="1122.3" y="319.8082"/><ellipse cx="1216.2586" cy="329.4082" fill="#ADD1B2" rx="6.6" ry="6.6" style="stroke:#181818;stroke-width:0.6;"/><path d="M1217.918,326.9332 Q1218.0117,326.802 1218.1242,326.7363 Q1218.2367,326.6707 1218.368,326.6707 Q1218.593,326.6707 1218.7336,326.8301 Q1218.8742,326.9801 1218.8742,327.3457 L1218.8742,328.2176 Q1218.8742,328.5832 1218.7336,328.7426 Q1218.593,328.902 1218.368,328.902 Q1218.1617,328.902 1218.0398,328.7801 Q1217.918,328.6676 1217.8523,328.3582 Q1217.8242,328.1426 1217.7117,328.0301 Q1217.5148,327.8051 1217.1492,327.6738 Q1216.7836,327.5426 1216.4086,327.5426 Q1215.9492,327.5426 1215.5648,327.7395 Q1215.1898,327.9363 1214.8898,328.3863 Q1214.5992,328.8363 1214.5992,329.4551 L1214.5992,330.1113 Q1214.5992,330.852 1215.1336,331.3488 Q1215.668,331.8363 1216.6242,331.8363 Q1217.1867,331.8363 1217.5805,331.6863 Q1217.8148,331.5926 1218.068,331.3301 Q1218.2273,331.1707 1218.3117,331.1238 Q1218.4055,331.077 1218.5273,331.077 Q1218.7242,331.077 1218.8742,331.2363 Q1219.0336,331.3863 1219.0336,331.5926 Q1219.0336,331.7988 1218.8273,332.0426 Q1218.5273,332.3895 1218.0492,332.5863 Q1217.4023,332.8582 1216.6242,332.8582 Q1215.7148,332.8582 1214.993,332.4832 Q1214.4023,332.1832 1213.9898,331.5457 Q1213.5773,330.8988 1213.5773,330.1301 L1213.5773,329.4363 Q1213.5773,328.6395 1213.943,327.9551 Q1214.318,327.2613 1214.9742,326.8957 Q1215.6305,326.5207 1216.3711,326.5207 Q1216.8117,326.5207 1217.1961,326.6238 Q1217.5898,326.7176 1217.918,326.9332 Z " fill="#000000"/><text fill="#000000" font-family="sans-serif" font-size="8.4" lengthAdjust="spacing" textLength="59.2963" x="1228.5586" y="332.8863">RequestArchive</text><line style="stroke:#181818;stroke-width:0.3;" x1="1122.9" x2="1374.0135" y1="339.0082" y2="339.0082"/><rect fill="none" height="3.6" style="stroke:#C82930;stroke-width:0.6;" width="3.6" x="1127.1" y="346.0945"/><text fill="#000000" font-family="sans-serif" font-size="8.4" lengthAdjust="spacing" textLength="236.7135" x="1134.3" y="350.4727">ArrayList&lt;AbstractMap.SimpleEntry&lt;Integer,Request&gt;&gt; archive</text><line style="stroke:#181818;stroke-width:0.3;" x1="1122.9" x2="1374.0135" y1="354.9809" y2="354.9809"/><ellipse cx="1128.9" cy="363.8672" fill="#84BE84" rx="1.8" ry="1.8" style="stroke:#038048;stroke-width:0.6;"/><text fill="#000000" font-family="sans-serif" font-size="8.4" lengthAdjust="spacing" textLength="93.8355" x="1134.3" y="366.4453">void sortBy(RequestSort)</text><ellipse cx="1128.9" cy="375.0398" fill="#84BE84" rx="1.8" ry="1.8" style="stroke:#038048;stroke-width:0.6;"/><text fill="#000000" font-family="sans-serif" font-size="8.4" lengthAdjust="spacing" textLength="66.3018" x="1134.3" y="377.618">void put(Request)</text><ellipse cx="1128.9" cy="386.2125" fill="#84BE84" rx="1.8" ry="1.8" style="stroke:#038048;stroke-width:0.6;"/><text fill="#000000" font-family="sans-serif" font-size="8.4" lengthAdjust="spacing" textLength="117.1939" x="1134.3" y="388.7906">Optional&lt;Request&gt; remove(int)</text><ellipse cx="1128.9" cy="397.3852" fill="#84BE84" rx="1.8" ry="1.8" style="stroke:#038048;stroke-width:0.6;"/><text fill="#000000" font-family="sans-serif" font-size="8.4" lengthAdjust="spacing" textLength="102.7277" x="1134.3" y="399.9633">Optional&lt;Request&gt; find(int)</text><ellipse cx="1128.9" cy="408.5578" fill="#84BE84" rx="1.8" ry="1.8" style="stroke:#038048;stroke-width:0.6;"/><text fill="#000000" font-family="sans-serif" font-size="8.4" lengthAdjust="spacing" textLength="49.0137" x="1134.3" y="411.1359">void printAll()</text><ellipse cx="1128.9" cy="419.7305" fill="#84BE84" rx="1.8" ry="1.8" style="stroke:#038048;stroke-width:0.6;"/><text fill="#000000" font-family="sans-serif" font-size="8.4" lengthAdjust="spacing" textLength="103.1789" x="1134.3" y="422.3086">ArrayList&lt;Request&gt; getAll()</text></g><!--class Archive--><g class="entity" data-entity="Archive" data-source-line="174" data-uid="ent0027" id="entity_Archive"><rect fill="#F1F1F1" height="84.6633" rx="1.5" ry="1.5" style="stroke:#181818;stroke-width:0.3;" width="106.6383" x="927.6" y="87.3082"/><ellipse cx="964.3644" cy="96.9082" fill="#B4A7E5" rx="6.6" ry="6.6" style="stroke:#181818;stroke-width:0.6;"/><path d="M964.9362,94.8926 L964.9362,98.8863 L965.9675,98.8863 Q966.3331,98.8863 966.4925,99.027 Q966.6519,99.1676 966.6519,99.402 Q966.6519,99.627 966.4925,99.7676 Q966.3331,99.9082 965.9675,99.9082 L962.8831,99.9082 Q962.5175,99.9082 962.3581,99.7676 Q962.1987,99.627 962.1987,99.3926 Q962.1987,99.1676 962.3581,99.027 Q962.5175,98.8863 962.8831,98.8863 L963.9144,98.8863 L963.9144,94.8926 L962.8831,94.8926 Q962.5175,94.8926 962.3581,94.752 Q962.1987,94.6113 962.1987,94.377 Q962.1987,94.152 962.3581,94.0113 Q962.5175,93.8707 962.8831,93.8707 L965.9675,93.8707 Q966.3331,93.8707 966.4925,94.0113 Q966.6519,94.152 966.6519,94.377 Q966.6519,94.6113 966.4925,94.752 Q966.3331,94.8926 965.9675,94.8926 L964.9362,94.8926 Z " fill="#000000"/><text fill="#000000" font-family="sans-serif" font-size="8.4" font-style="italic" lengthAdjust="spacing" textLength="28.0096" x="976.6644" y="100.3863">Archive</text><line style="stroke:#181818;stroke-width:0.3;" x1="928.2" x2="1033.6383" y1="106.5082" y2="106.5082"/><line style="stroke:#181818;stroke-width:0.3;" x1="928.2" x2="1033.6383" y1="111.3082" y2="111.3082"/><polygon fill="#4177AF" points="934.2,117.7945,931.8,121.3945,936.6,121.3945" style="stroke:#1963A0;stroke-width:0.6;"/><text fill="#000000" font-family="sans-serif" font-size="8.4" lengthAdjust="spacing" textLength="40.1461" x="939.6" y="122.7727">void put(T)</text><polygon fill="#4177AF" points="934.2,128.9672,931.8,132.5672,936.6,132.5672" style="stroke:#1963A0;stroke-width:0.6;"/><text fill="#000000" font-family="sans-serif" font-size="8.4" lengthAdjust="spacing" textLength="91.0383" x="939.6" y="133.9453">Optional&lt;T&gt; remove(int)</text><polygon fill="#4177AF" points="934.2,140.1398,931.8,143.7398,936.6,143.7398" style="stroke:#1963A0;stroke-width:0.6;"/><text fill="#000000" font-family="sans-serif" font-size="8.4" lengthAdjust="spacing" textLength="76.5721" x="939.6" y="145.118">Optional&lt;T&gt; find(int)</text><polygon fill="#4177AF" points="934.2,151.3125,931.8,154.9125,936.6,154.9125" style="stroke:#1963A0;stroke-width:0.6;"/><text fill="#000000" font-family="sans-serif" font-size="8.4" lengthAdjust="spacing" textLength="49.0137" x="939.6" y="156.2906">void printAll()</text><polygon fill="#4177AF" points="934.2,162.4852,931.8,166.0852,936.6,166.0852" style="stroke:#1963A0;stroke-width:0.6;"/><text fill="#000000" font-family="sans-serif" font-size="8.4" lengthAdjust="spacing" textLength="77.0232" x="939.6" y="167.4633">ArrayList&lt;T&gt; getAll()</text></g><!--class BookManager--><g class="entity" data-entity="BookManager" data-source-line="50" data-uid="ent0009" id="entity_BookManager"><rect fill="#F1F1F1" height="118.1812" rx="1.5" ry="1.5" style="stroke:#181818;stroke-width:0.3;" width="209.3619" x="13.5" y="523.2082"/><ellipse cx="89.4814" cy="532.8082" fill="#ADD1B2" rx="6.6" ry="6.6" style="stroke:#181818;stroke-width:0.6;"/><path d="M91.1408,530.3332 Q91.2346,530.202 91.3471,530.1363 Q91.4596,530.0707 91.5908,530.0707 Q91.8158,530.0707 91.9564,530.2301 Q92.0971,530.3801 92.0971,530.7457 L92.0971,531.6176 Q92.0971,531.9832 91.9564,532.1426 Q91.8158,532.302 91.5908,532.302 Q91.3846,532.302 91.2627,532.1801 Q91.1408,532.0676 91.0752,531.7582 Q91.0471,531.5426 90.9346,531.4301 Q90.7377,531.2051 90.3721,531.0738 Q90.0064,530.9426 89.6314,530.9426 Q89.1721,530.9426 88.7877,531.1395 Q88.4127,531.3363 88.1127,531.7863 Q87.8221,532.2363 87.8221,532.8551 L87.8221,533.5113 Q87.8221,534.252 88.3564,534.7488 Q88.8908,535.2363 89.8471,535.2363 Q90.4096,535.2363 90.8033,535.0863 Q91.0377,534.9926 91.2908,534.7301 Q91.4502,534.5707 91.5346,534.5238 Q91.6283,534.477 91.7502,534.477 Q91.9471,534.477 92.0971,534.6363 Q92.2564,534.7863 92.2564,534.9926 Q92.2564,535.1988 92.0502,535.4426 Q91.7502,535.7895 91.2721,535.9863 Q90.6252,536.2582 89.8471,536.2582 Q88.9377,536.2582 88.2158,535.8832 Q87.6252,535.5832 87.2127,534.9457 Q86.8002,534.2988 86.8002,533.5301 L86.8002,532.8363 Q86.8002,532.0395 87.1658,531.3551 Q87.5408,530.6613 88.1971,530.2957 Q88.8533,529.9207 89.5939,529.9207 Q90.0346,529.9207 90.4189,530.0238 Q90.8127,530.1176 91.1408,530.3332 Z " fill="#000000"/><text fill="#000000" font-family="sans-serif" font-size="8.4" lengthAdjust="spacing" textLength="52.299" x="101.7814" y="536.2863">BookManager</text><line style="stroke:#181818;stroke-width:0.3;" x1="14.1" x2="222.2619" y1="542.4082" y2="542.4082"/><rect fill="none" height="3.6" style="stroke:#C82930;stroke-width:0.6;" width="3.6" x="18.3" y="549.4945"/><text fill="#000000" font-family="sans-serif" font-size="8.4" lengthAdjust="spacing" textLength="97.6008" x="25.5" y="553.8727">BookCatalog bookCatalog</text><rect fill="none" height="3.6" style="stroke:#C82930;stroke-width:0.6;" width="3.6" x="18.3" y="560.6672"/><text fill="#000000" font-family="sans-serif" font-size="8.4" lengthAdjust="spacing" textLength="95.7141" x="25.5" y="565.0453">BookArchive bookArchive</text><line style="stroke:#181818;stroke-width:0.3;" x1="14.1" x2="222.2619" y1="569.5535" y2="569.5535"/><ellipse cx="20.1" cy="578.4398" fill="#84BE84" rx="1.8" ry="1.8" style="stroke:#038048;stroke-width:0.6;"/><text fill="#000000" font-family="sans-serif" font-size="8.4" lengthAdjust="spacing" textLength="109.7332" x="25.5" y="581.018">Optional&lt;Book&gt; findBook(int)</text><ellipse cx="20.1" cy="589.6125" fill="#84BE84" rx="1.8" ry="1.8" style="stroke:#038048;stroke-width:0.6;"/><text fill="#000000" font-family="sans-serif" font-size="8.4" lengthAdjust="spacing" textLength="148.4766" x="25.5" y="592.1906">Optional&lt;Book&gt; findBookByTitle(String)</text><ellipse cx="20.1" cy="600.7852" fill="#84BE84" rx="1.8" ry="1.8" style="stroke:#038048;stroke-width:0.6;"/><text fill="#000000" font-family="sans-serif" font-size="8.4" lengthAdjust="spacing" textLength="193.7619" x="25.5" y="603.3633">Book addBook(String,String,String,long,BigDecimal)</text><ellipse cx="20.1" cy="611.9578" fill="#84BE84" rx="1.8" ry="1.8" style="stroke:#038048;stroke-width:0.6;"/><text fill="#000000" font-family="sans-serif" font-size="8.4" lengthAdjust="spacing" textLength="124.1994" x="25.5" y="614.5359">Optional&lt;Book&gt; removeBook(int)</text><rect fill="#F24D5C" height="3.6" style="stroke:#C82930;stroke-width:0.6;" width="3.6" x="18.3" y="621.3305"/><text fill="#000000" font-family="sans-serif" font-size="8.4" lengthAdjust="spacing" textLength="56.9666" x="25.5" y="625.7086">int generateId()</text><rect fill="#F24D5C" height="3.6" style="stroke:#C82930;stroke-width:0.6;" width="3.6" x="18.3" y="632.5031"/><text fill="#000000" font-family="sans-serif" font-size="8.4" lengthAdjust="spacing" textLength="106.4396" x="25.5" y="636.8813">long getCurrentTimeStamp()</text></g><!--class RequestManager--><g class="entity" data-entity="RequestManager" data-source-line="62" data-uid="ent0011" id="entity_RequestManager"><rect fill="#F1F1F1" height="107.0086" rx="1.5" ry="1.5" style="stroke:#181818;stroke-width:0.3;" width="188.3578" x="244.2" y="528.9082"/><ellipse cx="303.6091" cy="538.5082" fill="#ADD1B2" rx="6.6" ry="6.6" style="stroke:#181818;stroke-width:0.6;"/><path d="M305.2685,536.0332 Q305.3622,535.902 305.4747,535.8363 Q305.5872,535.7707 305.7185,535.7707 Q305.9435,535.7707 306.0841,535.9301 Q306.2247,536.0801 306.2247,536.4457 L306.2247,537.3176 Q306.2247,537.6832 306.0841,537.8426 Q305.9435,538.002 305.7185,538.002 Q305.5122,538.002 305.3903,537.8801 Q305.2685,537.7676 305.2028,537.4582 Q305.1747,537.2426 305.0622,537.1301 Q304.8653,536.9051 304.4997,536.7738 Q304.1341,536.6426 303.7591,536.6426 Q303.2997,536.6426 302.9153,536.8395 Q302.5403,537.0363 302.2403,537.4863 Q301.9497,537.9363 301.9497,538.5551 L301.9497,539.2113 Q301.9497,539.952 302.4841,540.4488 Q303.0185,540.9363 303.9747,540.9363 Q304.5372,540.9363 304.931,540.7863 Q305.1653,540.6926 305.4185,540.4301 Q305.5778,540.2707 305.6622,540.2238 Q305.756,540.177 305.8778,540.177 Q306.0747,540.177 306.2247,540.3363 Q306.3841,540.4863 306.3841,540.6926 Q306.3841,540.8988 306.1778,541.1426 Q305.8778,541.4895 305.3997,541.6863 Q304.7528,541.9582 303.9747,541.9582 Q303.0653,541.9582 302.3435,541.5832 Q301.7528,541.2832 301.3403,540.6457 Q300.9278,539.9988 300.9278,539.2301 L300.9278,538.5363 Q300.9278,537.7395 301.2935,537.0551 Q301.6685,536.3613 302.3247,535.9957 Q302.981,535.6207 303.7216,535.6207 Q304.1622,535.6207 304.5466,535.7238 Q304.9403,535.8176 305.2685,536.0332 Z " fill="#000000"/><text fill="#000000" font-family="sans-serif" font-size="8.4" lengthAdjust="spacing" textLength="64.4396" x="315.9091" y="541.9863">RequestManager</text><line style="stroke:#181818;stroke-width:0.3;" x1="244.8" x2="431.9578" y1="548.1082" y2="548.1082"/><rect fill="none" height="3.6" style="stroke:#C82930;stroke-width:0.6;" width="3.6" x="249" y="555.1945"/><text fill="#000000" font-family="sans-serif" font-size="8.4" lengthAdjust="spacing" textLength="119.5441" x="256.2" y="559.5727">RequestCatalog requestCatalog</text><rect fill="none" height="3.6" style="stroke:#C82930;stroke-width:0.6;" width="3.6" x="249" y="566.3672"/><text fill="#000000" font-family="sans-serif" font-size="8.4" lengthAdjust="spacing" textLength="117.6574" x="256.2" y="570.7453">RequestArchive requestArchive</text><line style="stroke:#181818;stroke-width:0.3;" x1="244.8" x2="431.9578" y1="575.2535" y2="575.2535"/><ellipse cx="250.8" cy="584.1398" fill="#84BE84" rx="1.8" ry="1.8" style="stroke:#038048;stroke-width:0.6;"/><text fill="#000000" font-family="sans-serif" font-size="8.4" lengthAdjust="spacing" textLength="134.0145" x="256.2" y="586.718">Optional&lt;Request&gt; findRequest(int)</text><ellipse cx="250.8" cy="595.3125" fill="#84BE84" rx="1.8" ry="1.8" style="stroke:#038048;stroke-width:0.6;"/><text fill="#000000" font-family="sans-serif" font-size="8.4" lengthAdjust="spacing" textLength="172.7578" x="256.2" y="597.8906">Optional&lt;Request&gt; findRequestByTitle(String)</text><ellipse cx="250.8" cy="606.4852" fill="#84BE84" rx="1.8" ry="1.8" style="stroke:#038048;stroke-width:0.6;"/><text fill="#000000" font-family="sans-serif" font-size="8.4" lengthAdjust="spacing" textLength="115.7912" x="256.2" y="609.0633">Request createRequest(String)</text><ellipse cx="250.8" cy="617.6578" fill="#84BE84" rx="1.8" ry="1.8" style="stroke:#038048;stroke-width:0.6;"/><text fill="#000000" font-family="sans-serif" font-size="8.4" lengthAdjust="spacing" textLength="148.4807" x="256.2" y="620.2359">Optional&lt;Request&gt; removeRequest(int)</text><rect fill="#F24D5C" height="3.6" style="stroke:#C82930;stroke-width:0.6;" width="3.6" x="249" y="627.0305"/><text fill="#000000" font-family="sans-serif" font-size="8.4" lengthAdjust="spacing" textLength="56.9666" x="256.2" y="631.4086">int generateId()</text></g><!--class OrderManager--><g class="entity" data-entity="OrderManager" data-source-line="79" data-uid="ent0013" id="entity_OrderManager"><rect fill="#F1F1F1" height="95.8359" rx="1.5" ry="1.5" style="stroke:#181818;stroke-width:0.3;" width="192.0697" x="22.2" y="677.4082"/><ellipse cx="88.3726" cy="687.0082" fill="#ADD1B2" rx="6.6" ry="6.6" style="stroke:#181818;stroke-width:0.6;"/><path d="M90.0319,684.5332 Q90.1257,684.402 90.2382,684.3363 Q90.3507,684.2707 90.4819,684.2707 Q90.7069,684.2707 90.8476,684.4301 Q90.9882,684.5801 90.9882,684.9457 L90.9882,685.8176 Q90.9882,686.1832 90.8476,686.3426 Q90.7069,686.502 90.4819,686.502 Q90.2757,686.502 90.1538,686.3801 Q90.0319,686.2676 89.9663,685.9582 Q89.9382,685.7426 89.8257,685.6301 Q89.6288,685.4051 89.2632,685.2738 Q88.8976,685.1426 88.5226,685.1426 Q88.0632,685.1426 87.6788,685.3395 Q87.3038,685.5363 87.0038,685.9863 Q86.7132,686.4363 86.7132,687.0551 L86.7132,687.7113 Q86.7132,688.452 87.2476,688.9488 Q87.7819,689.4363 88.7382,689.4363 Q89.3007,689.4363 89.6944,689.2863 Q89.9288,689.1926 90.1819,688.9301 Q90.3413,688.7707 90.4257,688.7238 Q90.5194,688.677 90.6413,688.677 Q90.8382,688.677 90.9882,688.8363 Q91.1476,688.9863 91.1476,689.1926 Q91.1476,689.3988 90.9413,689.6426 Q90.6413,689.9895 90.1632,690.1863 Q89.5163,690.4582 88.7382,690.4582 Q87.8288,690.4582 87.1069,690.0832 Q86.5163,689.7832 86.1038,689.1457 Q85.6913,688.4988 85.6913,687.7301 L85.6913,687.0363 Q85.6913,686.2395 86.0569,685.5551 Q86.4319,684.8613 87.0882,684.4957 Q87.7444,684.1207 88.4851,684.1207 Q88.9257,684.1207 89.3101,684.2238 Q89.7038,684.3176 90.0319,684.5332 Z " fill="#000000"/><text fill="#000000" font-family="sans-serif" font-size="8.4" lengthAdjust="spacing" textLength="54.6246" x="100.6726" y="690.4863">OrderManager</text><line style="stroke:#181818;stroke-width:0.3;" x1="22.8" x2="213.6697" y1="696.6082" y2="696.6082"/><rect fill="none" height="3.6" style="stroke:#C82930;stroke-width:0.6;" width="3.6" x="27" y="703.6945"/><text fill="#000000" font-family="sans-serif" font-size="8.4" lengthAdjust="spacing" textLength="101.3209" x="34.2" y="708.0727">OrderCatalog orderCatalog</text><rect fill="none" height="3.6" style="stroke:#C82930;stroke-width:0.6;" width="3.6" x="27" y="714.8672"/><text fill="#000000" font-family="sans-serif" font-size="8.4" lengthAdjust="spacing" textLength="99.4342" x="34.2" y="719.2453">OrderArchive orderArchive</text><line style="stroke:#181818;stroke-width:0.3;" x1="22.8" x2="213.6697" y1="723.7535" y2="723.7535"/><ellipse cx="28.8" cy="732.6398" fill="#84BE84" rx="1.8" ry="1.8" style="stroke:#038048;stroke-width:0.6;"/><text fill="#000000" font-family="sans-serif" font-size="8.4" lengthAdjust="spacing" textLength="114.3844" x="34.2" y="735.218">Optional&lt;Order&gt; findOrder(int)</text><ellipse cx="28.8" cy="743.8125" fill="#84BE84" rx="1.8" ry="1.8" style="stroke:#038048;stroke-width:0.6;"/><text fill="#000000" font-family="sans-serif" font-size="8.4" lengthAdjust="spacing" textLength="125.5816" x="34.2" y="746.3906">Order createOrder(int,long,String)</text><ellipse cx="28.8" cy="754.9852" fill="#84BE84" rx="1.8" ry="1.8" style="stroke:#038048;stroke-width:0.6;"/><text fill="#000000" font-family="sans-serif" font-size="8.4" lengthAdjust="spacing" textLength="176.4697" x="34.2" y="757.5633">Optional&lt;Order&gt; removeOrder(int,OrderStatus)</text><rect fill="#F24D5C" height="3.6" style="stroke:#C82930;stroke-width:0.6;" width="3.6" x="27" y="764.3578"/><text fill="#000000" font-family="sans-serif" font-size="8.4" lengthAdjust="spacing" textLength="56.9666" x="34.2" y="768.7359">int generateId()</text></g><!--class BookStatus--><g class="entity" data-entity="BookStatus" data-source-line="89" data-uid="ent0014" id="entity_BookStatus"><rect fill="#F1F1F1" height="51.1453" rx="1.5" ry="1.5" style="stroke:#181818;stroke-width:0.3;" width="62.1598" x="466.2" y="556.8082"/><ellipse cx="475.2" cy="566.4082" fill="#EB937F" rx="6.6" ry="6.6" style="stroke:#181818;stroke-width:0.6;"/><path d="M474.5156,566.8863 L474.5156,568.3863 L477.1125,568.3863 L477.1125,567.8332 Q477.1125,567.4676 477.2531,567.3082 Q477.4031,567.1488 477.6281,567.1488 Q477.8531,567.1488 477.9938,567.3082 Q478.1344,567.4676 478.1344,567.8332 L478.1344,569.4082 L473.3344,569.4082 Q472.9594,569.4082 472.8,569.2676 Q472.65,569.127 472.65,568.8926 Q472.65,568.6676 472.8094,568.527 Q472.9688,568.3863 473.3344,568.3863 L473.4938,568.3863 L473.4938,564.3926 L473.3344,564.3926 Q472.9594,564.3926 472.8,564.252 Q472.65,564.1113 472.65,563.877 Q472.65,563.652 472.8,563.5113 Q472.9594,563.3707 473.3344,563.3707 L477.9094,563.3707 L477.9094,564.927 Q477.9094,565.2926 477.7687,565.452 Q477.6375,565.602 477.4031,565.602 Q477.1781,565.602 477.0375,565.452 Q476.8969,565.2926 476.8969,564.927 L476.8969,564.3926 L474.5156,564.3926 L474.5156,565.8645 L475.4063,565.8645 Q475.4063,565.4707 475.4813,565.3582 Q475.6406,565.1145 475.9219,565.1145 Q476.1469,565.1145 476.2875,565.2738 Q476.4281,565.4238 476.4281,565.7895 L476.4281,566.9707 Q476.4281,567.2988 476.3531,567.4113 Q476.1937,567.6457 475.9219,567.6457 Q475.6406,567.6457 475.4813,567.402 Q475.4063,567.2895 475.4063,566.8863 L474.5156,566.8863 Z " fill="#000000"/><text fill="#000000" font-family="sans-serif" font-size="8.4" lengthAdjust="spacing" textLength="42.9598" x="483.6" y="569.8863">BookStatus</text><line style="stroke:#181818;stroke-width:0.3;" x1="466.8" x2="527.7598" y1="576.0082" y2="576.0082"/><ellipse cx="472.8" cy="584.8945" fill="none" rx="1.8" ry="1.8" style="stroke:#038048;stroke-width:0.6;"/><text fill="#000000" font-family="sans-serif" font-size="8.4" lengthAdjust="spacing" textLength="28.4771" x="478.2" y="587.4727">InOrder</text><ellipse cx="472.8" cy="596.0672" fill="none" rx="1.8" ry="1.8" style="stroke:#038048;stroke-width:0.6;"/><text fill="#000000" font-family="sans-serif" font-size="8.4" lengthAdjust="spacing" textLength="41.5488" x="478.2" y="598.6453">NotInOrder</text><line style="stroke:#181818;stroke-width:0.3;" x1="466.8" x2="527.7598" y1="603.1535" y2="603.1535"/></g><!--class RequestStatus--><g class="entity" data-entity="RequestStatus" data-source-line="130" data-uid="ent0023" id="entity_RequestStatus"><rect fill="#F1F1F1" height="51.1453" rx="1.5" ry="1.5" style="stroke:#181818;stroke-width:0.3;" width="74.3004" x="549.6" y="556.8082"/><ellipse cx="558.6" cy="566.4082" fill="#EB937F" rx="6.6" ry="6.6" style="stroke:#181818;stroke-width:0.6;"/><path d="M557.9156,566.8863 L557.9156,568.3863 L560.5125,568.3863 L560.5125,567.8332 Q560.5125,567.4676 560.6531,567.3082 Q560.8031,567.1488 561.0281,567.1488 Q561.2531,567.1488 561.3938,567.3082 Q561.5344,567.4676 561.5344,567.8332 L561.5344,569.4082 L556.7344,569.4082 Q556.3594,569.4082 556.2,569.2676 Q556.05,569.127 556.05,568.8926 Q556.05,568.6676 556.2094,568.527 Q556.3688,568.3863 556.7344,568.3863 L556.8938,568.3863 L556.8938,564.3926 L556.7344,564.3926 Q556.3594,564.3926 556.2,564.252 Q556.05,564.1113 556.05,563.877 Q556.05,563.652 556.2,563.5113 Q556.3594,563.3707 556.7344,563.3707 L561.3094,563.3707 L561.3094,564.927 Q561.3094,565.2926 561.1687,565.452 Q561.0375,565.602 560.8031,565.602 Q560.5781,565.602 560.4375,565.452 Q560.2969,565.2926 560.2969,564.927 L560.2969,564.3926 L557.9156,564.3926 L557.9156,565.8645 L558.8063,565.8645 Q558.8063,565.4707 558.8813,565.3582 Q559.0406,565.1145 559.3219,565.1145 Q559.5469,565.1145 559.6875,565.2738 Q559.8281,565.4238 559.8281,565.7895 L559.8281,566.9707 Q559.8281,567.2988 559.7531,567.4113 Q559.5938,567.6457 559.3219,567.6457 Q559.0406,567.6457 558.8813,567.402 Q558.8063,567.2895 558.8063,566.8863 L557.9156,566.8863 Z " fill="#000000"/><text fill="#000000" font-family="sans-serif" font-size="8.4" lengthAdjust="spacing" textLength="55.1004" x="567" y="569.8863">RequestStatus</text><line style="stroke:#181818;stroke-width:0.3;" x1="550.2" x2="623.3004" y1="576.0082" y2="576.0082"/><ellipse cx="556.2" cy="584.8945" fill="none" rx="1.8" ry="1.8" style="stroke:#038048;stroke-width:0.6;"/><text fill="#000000" font-family="sans-serif" font-size="8.4" lengthAdjust="spacing" textLength="29.8922" x="561.6" y="587.4727">Opened</text><ellipse cx="556.2" cy="596.0672" fill="none" rx="1.8" ry="1.8" style="stroke:#038048;stroke-width:0.6;"/><text fill="#000000" font-family="sans-serif" font-size="8.4" lengthAdjust="spacing" textLength="26.1475" x="561.6" y="598.6453">Closed</text><line style="stroke:#181818;stroke-width:0.3;" x1="550.2" x2="623.3004" y1="603.1535" y2="603.1535"/></g><!--class OrderStatus--><g class="entity" data-entity="OrderStatus" data-source-line="197" data-uid="ent0031" id="entity_OrderStatus"><rect fill="#F1F1F1" height="62.318" rx="1.5" ry="1.5" style="stroke:#181818;stroke-width:0.3;" width="64.4854" x="466.5" y="694.2082"/><ellipse cx="475.5" cy="703.8082" fill="#EB937F" rx="6.6" ry="6.6" style="stroke:#181818;stroke-width:0.6;"/><path d="M474.8156,704.2863 L474.8156,705.7863 L477.4125,705.7863 L477.4125,705.2332 Q477.4125,704.8676 477.5531,704.7082 Q477.7031,704.5488 477.9281,704.5488 Q478.1531,704.5488 478.2938,704.7082 Q478.4344,704.8676 478.4344,705.2332 L478.4344,706.8082 L473.6344,706.8082 Q473.2594,706.8082 473.1,706.6676 Q472.95,706.527 472.95,706.2926 Q472.95,706.0676 473.1094,705.927 Q473.2687,705.7863 473.6344,705.7863 L473.7938,705.7863 L473.7938,701.7926 L473.6344,701.7926 Q473.2594,701.7926 473.1,701.652 Q472.95,701.5113 472.95,701.277 Q472.95,701.052 473.1,700.9113 Q473.2594,700.7707 473.6344,700.7707 L478.2094,700.7707 L478.2094,702.327 Q478.2094,702.6926 478.0687,702.852 Q477.9375,703.002 477.7031,703.002 Q477.4781,703.002 477.3375,702.852 Q477.1969,702.6926 477.1969,702.327 L477.1969,701.7926 L474.8156,701.7926 L474.8156,703.2645 L475.7062,703.2645 Q475.7062,702.8707 475.7813,702.7582 Q475.9406,702.5145 476.2219,702.5145 Q476.4469,702.5145 476.5875,702.6738 Q476.7281,702.8238 476.7281,703.1895 L476.7281,704.3707 Q476.7281,704.6988 476.6531,704.8113 Q476.4938,705.0457 476.2219,705.0457 Q475.9406,705.0457 475.7813,704.802 Q475.7062,704.6895 475.7062,704.2863 L474.8156,704.2863 Z " fill="#000000"/><text fill="#000000" font-family="sans-serif" font-size="8.4" lengthAdjust="spacing" textLength="45.2854" x="483.9" y="707.2863">OrderStatus</text><line style="stroke:#181818;stroke-width:0.3;" x1="467.1" x2="530.3854" y1="713.4082" y2="713.4082"/><ellipse cx="473.1" cy="722.2945" fill="none" rx="1.8" ry="1.8" style="stroke:#038048;stroke-width:0.6;"/><text fill="#000000" font-family="sans-serif" font-size="8.4" lengthAdjust="spacing" textLength="16.8041" x="478.5" y="724.8727">New</text><ellipse cx="473.1" cy="733.4672" fill="none" rx="1.8" ry="1.8" style="stroke:#038048;stroke-width:0.6;"/><text fill="#000000" font-family="sans-serif" font-size="8.4" lengthAdjust="spacing" textLength="31.7461" x="478.5" y="736.0453">Success</text><ellipse cx="473.1" cy="744.6398" fill="none" rx="1.8" ry="1.8" style="stroke:#038048;stroke-width:0.6;"/><text fill="#000000" font-family="sans-serif" font-size="8.4" lengthAdjust="spacing" textLength="38.7393" x="478.5" y="747.218">Dismissed</text><line style="stroke:#181818;stroke-width:0.3;" x1="467.1" x2="530.3854" y1="751.7262" y2="751.7262"/></g><!--class RequestCatalog--><g class="entity" data-entity="RequestCatalog" data-source-line="106" data-uid="ent0017" id="entity_RequestCatalog"><rect fill="#F1F1F1" height="84.6633" rx="1.5" ry="1.5" style="stroke:#181818;stroke-width:0.3;" width="136.0752" x="1409.1" y="330.9082"/><ellipse cx="1444.4678" cy="340.5082" fill="#ADD1B2" rx="6.6" ry="6.6" style="stroke:#181818;stroke-width:0.6;"/><path d="M1446.1271,338.0332 Q1446.2209,337.902 1446.3334,337.8363 Q1446.4459,337.7707 1446.5771,337.7707 Q1446.8021,337.7707 1446.9428,337.9301 Q1447.0834,338.0801 1447.0834,338.4457 L1447.0834,339.3176 Q1447.0834,339.6832 1446.9428,339.8426 Q1446.8021,340.002 1446.5771,340.002 Q1446.3709,340.002 1446.249,339.8801 Q1446.1271,339.7676 1446.0615,339.4582 Q1446.0334,339.2426 1445.9209,339.1301 Q1445.724,338.9051 1445.3584,338.7738 Q1444.9928,338.6426 1444.6178,338.6426 Q1444.1584,338.6426 1443.774,338.8395 Q1443.399,339.0363 1443.099,339.4863 Q1442.8084,339.9363 1442.8084,340.5551 L1442.8084,341.2113 Q1442.8084,341.952 1443.3428,342.4488 Q1443.8771,342.9363 1444.8334,342.9363 Q1445.3959,342.9363 1445.7896,342.7863 Q1446.024,342.6926 1446.2771,342.4301 Q1446.4365,342.2707 1446.5209,342.2238 Q1446.6146,342.177 1446.7365,342.177 Q1446.9334,342.177 1447.0834,342.3363 Q1447.2428,342.4863 1447.2428,342.6926 Q1447.2428,342.8988 1447.0365,343.1426 Q1446.7365,343.4895 1446.2584,343.6863 Q1445.6115,343.9582 1444.8334,343.9582 Q1443.924,343.9582 1443.2021,343.5832 Q1442.6115,343.2832 1442.199,342.6457 Q1441.7865,341.9988 1441.7865,341.2301 L1441.7865,340.5363 Q1441.7865,339.7395 1442.1521,339.0551 Q1442.5271,338.3613 1443.1834,337.9957 Q1443.8396,337.6207 1444.5803,337.6207 Q1445.0209,337.6207 1445.4053,337.7238 Q1445.799,337.8176 1446.1271,338.0332 Z " fill="#000000"/><text fill="#000000" font-family="sans-serif" font-size="8.4" lengthAdjust="spacing" textLength="60.2396" x="1456.7678" y="343.9863">RequestCatalog</text><line style="stroke:#181818;stroke-width:0.3;" x1="1409.7" x2="1544.5752" y1="350.1082" y2="350.1082"/><rect fill="none" height="3.6" style="stroke:#C82930;stroke-width:0.6;" width="3.6" x="1413.9" y="357.1945"/><text fill="#000000" font-family="sans-serif" font-size="8.4" lengthAdjust="spacing" textLength="120.4752" x="1421.1" y="361.5727">Map&lt;Integer,Request&gt; requests</text><line style="stroke:#181818;stroke-width:0.3;" x1="1409.7" x2="1544.5752" y1="366.0809" y2="366.0809"/><ellipse cx="1415.7" cy="374.9672" fill="#84BE84" rx="1.8" ry="1.8" style="stroke:#038048;stroke-width:0.6;"/><text fill="#000000" font-family="sans-serif" font-size="8.4" lengthAdjust="spacing" textLength="113.9332" x="1421.1" y="377.5453">Optional&lt;Request&gt; get(String)</text><ellipse cx="1415.7" cy="386.1398" fill="#84BE84" rx="1.8" ry="1.8" style="stroke:#038048;stroke-width:0.6;"/><text fill="#000000" font-family="sans-serif" font-size="8.4" lengthAdjust="spacing" textLength="66.3018" x="1421.1" y="388.718">void put(Request)</text><ellipse cx="1415.7" cy="397.3125" fill="#84BE84" rx="1.8" ry="1.8" style="stroke:#038048;stroke-width:0.6;"/><text fill="#000000" font-family="sans-serif" font-size="8.4" lengthAdjust="spacing" textLength="117.1939" x="1421.1" y="399.8906">Optional&lt;Request&gt; remove(int)</text><ellipse cx="1415.7" cy="408.4852" fill="#84BE84" rx="1.8" ry="1.8" style="stroke:#038048;stroke-width:0.6;"/><text fill="#000000" font-family="sans-serif" font-size="8.4" lengthAdjust="spacing" textLength="100.8615" x="1421.1" y="411.0633">Optional&lt;Request&gt; get(int)</text></g><!--class BookCatalog--><g class="entity" data-entity="BookCatalog" data-source-line="155" data-uid="ent0025" id="entity_BookCatalog"><rect fill="#F1F1F1" height="107.0086" rx="1.5" ry="1.5" style="stroke:#181818;stroke-width:0.3;" width="209.8049" x="1566.6" y="319.8082"/><ellipse cx="1644.9029" cy="329.4082" fill="#ADD1B2" rx="6.6" ry="6.6" style="stroke:#181818;stroke-width:0.6;"/><path d="M1646.5623,326.9332 Q1646.6561,326.802 1646.7686,326.7363 Q1646.8811,326.6707 1647.0123,326.6707 Q1647.2373,326.6707 1647.3779,326.8301 Q1647.5186,326.9801 1647.5186,327.3457 L1647.5186,328.2176 Q1647.5186,328.5832 1647.3779,328.7426 Q1647.2373,328.902 1647.0123,328.902 Q1646.8061,328.902 1646.6842,328.7801 Q1646.5623,328.6676 1646.4967,328.3582 Q1646.4686,328.1426 1646.3561,328.0301 Q1646.1592,327.8051 1645.7936,327.6738 Q1645.4279,327.5426 1645.0529,327.5426 Q1644.5936,327.5426 1644.2092,327.7395 Q1643.8342,327.9363 1643.5342,328.3863 Q1643.2436,328.8363 1643.2436,329.4551 L1643.2436,330.1113 Q1643.2436,330.852 1643.7779,331.3488 Q1644.3123,331.8363 1645.2686,331.8363 Q1645.8311,331.8363 1646.2248,331.6863 Q1646.4592,331.5926 1646.7123,331.3301 Q1646.8717,331.1707 1646.9561,331.1238 Q1647.0498,331.077 1647.1717,331.077 Q1647.3686,331.077 1647.5186,331.2363 Q1647.6779,331.3863 1647.6779,331.5926 Q1647.6779,331.7988 1647.4717,332.0426 Q1647.1717,332.3895 1646.6936,332.5863 Q1646.0467,332.8582 1645.2686,332.8582 Q1644.3592,332.8582 1643.6373,332.4832 Q1643.0467,332.1832 1642.6342,331.5457 Q1642.2217,330.8988 1642.2217,330.1301 L1642.2217,329.4363 Q1642.2217,328.6395 1642.5873,327.9551 Q1642.9623,327.2613 1643.6186,326.8957 Q1644.2748,326.5207 1645.0154,326.5207 Q1645.4561,326.5207 1645.8404,326.6238 Q1646.2342,326.7176 1646.5623,326.9332 Z " fill="#000000"/><text fill="#000000" font-family="sans-serif" font-size="8.4" lengthAdjust="spacing" textLength="48.099" x="1657.2029" y="332.8863">BookCatalog</text><line style="stroke:#181818;stroke-width:0.3;" x1="1567.2" x2="1775.8049" y1="339.0082" y2="339.0082"/><rect fill="none" height="3.6" style="stroke:#C82930;stroke-width:0.6;" width="3.6" x="1571.4" y="346.0945"/><text fill="#000000" font-family="sans-serif" font-size="8.4" lengthAdjust="spacing" textLength="98.5318" x="1578.6" y="350.4727">Map&lt;Integer,Book&gt; books</text><line style="stroke:#181818;stroke-width:0.3;" x1="1567.2" x2="1775.8049" y1="354.9809" y2="354.9809"/><ellipse cx="1573.2" cy="363.8672" fill="#84BE84" rx="1.8" ry="1.8" style="stroke:#038048;stroke-width:0.6;"/><text fill="#000000" font-family="sans-serif" font-size="8.4" lengthAdjust="spacing" textLength="194.2049" x="1578.6" y="366.4453">ArrayList&lt;Book&gt; getNotSold(BigDecimal,TimeUnits)</text><rect fill="#F24D5C" height="3.6" style="stroke:#C82930;stroke-width:0.6;" width="3.6" x="1571.4" y="373.2398"/><text fill="#000000" font-family="sans-serif" font-size="8.4" lengthAdjust="spacing" textLength="172.7209" x="1578.6" y="377.618">BigDecimal toSeconds(BigDecimal,TimeUnits)</text><ellipse cx="1573.2" cy="386.2125" fill="#84BE84" rx="1.8" ry="1.8" style="stroke:#038048;stroke-width:0.6;"/><text fill="#000000" font-family="sans-serif" font-size="8.4" lengthAdjust="spacing" textLength="101.7926" x="1578.6" y="388.7906">Optional&lt;Book&gt; get(String)</text><ellipse cx="1573.2" cy="397.3852" fill="#84BE84" rx="1.8" ry="1.8" style="stroke:#038048;stroke-width:0.6;"/><text fill="#000000" font-family="sans-serif" font-size="8.4" lengthAdjust="spacing" textLength="54.1611" x="1578.6" y="399.9633">void put(Book)</text><ellipse cx="1573.2" cy="408.5578" fill="#84BE84" rx="1.8" ry="1.8" style="stroke:#038048;stroke-width:0.6;"/><text fill="#000000" font-family="sans-serif" font-size="8.4" lengthAdjust="spacing" textLength="105.0533" x="1578.6" y="411.1359">Optional&lt;Book&gt; remove(int)</text><ellipse cx="1573.2" cy="419.7305" fill="#84BE84" rx="1.8" ry="1.8" style="stroke:#038048;stroke-width:0.6;"/><text fill="#000000" font-family="sans-serif" font-size="8.4" lengthAdjust="spacing" textLength="88.7209" x="1578.6" y="422.3086">Optional&lt;Book&gt; get(int)</text></g><!--class OrderCatalog--><g class="entity" data-entity="OrderCatalog" data-source-line="166" data-uid="ent0026" id="entity_OrderCatalog"><rect fill="#F1F1F1" height="73.4906" rx="1.5" ry="1.5" style="stroke:#181818;stroke-width:0.3;" width="122.9789" x="1797.9" y="336.6082"/><ellipse cx="1831.6271" cy="346.2082" fill="#ADD1B2" rx="6.6" ry="6.6" style="stroke:#181818;stroke-width:0.6;"/><path d="M1833.2865,343.7332 Q1833.3803,343.602 1833.4928,343.5363 Q1833.6053,343.4707 1833.7365,343.4707 Q1833.9615,343.4707 1834.1021,343.6301 Q1834.2428,343.7801 1834.2428,344.1457 L1834.2428,345.0176 Q1834.2428,345.3832 1834.1021,345.5426 Q1833.9615,345.702 1833.7365,345.702 Q1833.5303,345.702 1833.4084,345.5801 Q1833.2865,345.4676 1833.2209,345.1582 Q1833.1928,344.9426 1833.0803,344.8301 Q1832.8834,344.6051 1832.5178,344.4738 Q1832.1521,344.3426 1831.7771,344.3426 Q1831.3178,344.3426 1830.9334,344.5395 Q1830.5584,344.7363 1830.2584,345.1863 Q1829.9678,345.6363 1829.9678,346.2551 L1829.9678,346.9113 Q1829.9678,347.652 1830.5021,348.1488 Q1831.0365,348.6363 1831.9928,348.6363 Q1832.5553,348.6363 1832.949,348.4863 Q1833.1834,348.3926 1833.4365,348.1301 Q1833.5959,347.9707 1833.6803,347.9238 Q1833.774,347.877 1833.8959,347.877 Q1834.0928,347.877 1834.2428,348.0363 Q1834.4021,348.1863 1834.4021,348.3926 Q1834.4021,348.5988 1834.1959,348.8426 Q1833.8959,349.1895 1833.4178,349.3863 Q1832.7709,349.6582 1831.9928,349.6582 Q1831.0834,349.6582 1830.3615,349.2832 Q1829.7709,348.9832 1829.3584,348.3457 Q1828.9459,347.6988 1828.9459,346.9301 L1828.9459,346.2363 Q1828.9459,345.4395 1829.3115,344.7551 Q1829.6865,344.0613 1830.3428,343.6957 Q1830.999,343.3207 1831.7396,343.3207 Q1832.1803,343.3207 1832.5646,343.4238 Q1832.9584,343.5176 1833.2865,343.7332 Z " fill="#000000"/><text fill="#000000" font-family="sans-serif" font-size="8.4" lengthAdjust="spacing" textLength="50.4246" x="1843.9271" y="349.6863">OrderCatalog</text><line style="stroke:#181818;stroke-width:0.3;" x1="1798.5" x2="1920.2789" y1="355.8082" y2="355.8082"/><rect fill="none" height="3.6" style="stroke:#C82930;stroke-width:0.6;" width="3.6" x="1802.7" y="362.8945"/><text fill="#000000" font-family="sans-serif" font-size="8.4" lengthAdjust="spacing" textLength="102.252" x="1809.9" y="367.2727">Map&lt;Integer,Order&gt; orders</text><line style="stroke:#181818;stroke-width:0.3;" x1="1798.5" x2="1920.2789" y1="371.7809" y2="371.7809"/><ellipse cx="1804.5" cy="380.6672" fill="#84BE84" rx="1.8" ry="1.8" style="stroke:#038048;stroke-width:0.6;"/><text fill="#000000" font-family="sans-serif" font-size="8.4" lengthAdjust="spacing" textLength="56.4867" x="1809.9" y="383.2453">void put(Order)</text><ellipse cx="1804.5" cy="391.8398" fill="#84BE84" rx="1.8" ry="1.8" style="stroke:#038048;stroke-width:0.6;"/><text fill="#000000" font-family="sans-serif" font-size="8.4" lengthAdjust="spacing" textLength="107.3789" x="1809.9" y="394.418">Optional&lt;Order&gt; remove(int)</text><ellipse cx="1804.5" cy="403.0125" fill="#84BE84" rx="1.8" ry="1.8" style="stroke:#038048;stroke-width:0.6;"/><text fill="#000000" font-family="sans-serif" font-size="8.4" lengthAdjust="spacing" textLength="91.0465" x="1809.9" y="405.5906">Optional&lt;Order&gt; get(int)</text></g><!--class Catalog--><g class="entity" data-entity="Catalog" data-source-line="182" data-uid="ent0028" id="entity_Catalog"><rect fill="#F1F1F1" height="62.318" rx="1.5" ry="1.5" style="stroke:#181818;stroke-width:0.3;" width="106.6383" x="1618.2" y="98.4082"/><ellipse cx="1654.4927" cy="108.0082" fill="#B4A7E5" rx="6.6" ry="6.6" style="stroke:#181818;stroke-width:0.6;"/><path d="M1655.0646,105.9926 L1655.0646,109.9863 L1656.0958,109.9863 Q1656.4614,109.9863 1656.6208,110.127 Q1656.7802,110.2676 1656.7802,110.502 Q1656.7802,110.727 1656.6208,110.8676 Q1656.4614,111.0082 1656.0958,111.0082 L1653.0114,111.0082 Q1652.6458,111.0082 1652.4864,110.8676 Q1652.3271,110.727 1652.3271,110.4926 Q1652.3271,110.2676 1652.4864,110.127 Q1652.6458,109.9863 1653.0114,109.9863 L1654.0427,109.9863 L1654.0427,105.9926 L1653.0114,105.9926 Q1652.6458,105.9926 1652.4864,105.852 Q1652.3271,105.7113 1652.3271,105.477 Q1652.3271,105.252 1652.4864,105.1113 Q1652.6458,104.9707 1653.0114,104.9707 L1656.0958,104.9707 Q1656.4614,104.9707 1656.6208,105.1113 Q1656.7802,105.252 1656.7802,105.477 Q1656.7802,105.7113 1656.6208,105.852 Q1656.4614,105.9926 1656.0958,105.9926 L1655.0646,105.9926 Z " fill="#000000"/><text fill="#000000" font-family="sans-serif" font-size="8.4" font-style="italic" lengthAdjust="spacing" textLength="28.9529" x="1666.7927" y="111.4863">Catalog</text><line style="stroke:#181818;stroke-width:0.3;" x1="1618.8" x2="1724.2383" y1="117.6082" y2="117.6082"/><line style="stroke:#181818;stroke-width:0.3;" x1="1618.8" x2="1724.2383" y1="122.4082" y2="122.4082"/><polygon fill="#4177AF" points="1624.8,128.8945,1622.4,132.4945,1627.2,132.4945" style="stroke:#1963A0;stroke-width:0.6;"/><text fill="#000000" font-family="sans-serif" font-size="8.4" lengthAdjust="spacing" textLength="40.1461" x="1630.2" y="133.8727">void put(T)</text><polygon fill="#4177AF" points="1624.8,140.0672,1622.4,143.6672,1627.2,143.6672" style="stroke:#1963A0;stroke-width:0.6;"/><text fill="#000000" font-family="sans-serif" font-size="8.4" lengthAdjust="spacing" textLength="91.0383" x="1630.2" y="145.0453">Optional&lt;T&gt; remove(int)</text><polygon fill="#4177AF" points="1624.8,151.2398,1622.4,154.8398,1627.2,154.8398" style="stroke:#1963A0;stroke-width:0.6;"/><text fill="#000000" font-family="sans-serif" font-size="8.4" lengthAdjust="spacing" textLength="74.7059" x="1630.2" y="156.218">Optional&lt;T&gt; get(int)</text></g><!--class TaskThreeFour--><g class="entity" data-entity="TaskThreeFour" data-source-line="126" data-uid="ent0020" id="entity_TaskThreeFour"><rect fill="#F1F1F1" height="39.9727" rx="1.5" ry="1.5" style="stroke:#181818;stroke-width:0.3;" width="83.7557" x="1969.2" y="109.5082"/><ellipse cx="1981.4121" cy="119.1082" fill="#ADD1B2" rx="6.6" ry="6.6" style="stroke:#181818;stroke-width:0.6;"/><path d="M1983.0714,116.6332 Q1983.1652,116.502 1983.2777,116.4363 Q1983.3902,116.3707 1983.5214,116.3707 Q1983.7464,116.3707 1983.8871,116.5301 Q1984.0277,116.6801 1984.0277,117.0457 L1984.0277,117.9176 Q1984.0277,118.2832 1983.8871,118.4426 Q1983.7464,118.602 1983.5214,118.602 Q1983.3152,118.602 1983.1933,118.4801 Q1983.0714,118.3676 1983.0058,118.0582 Q1982.9777,117.8426 1982.8652,117.7301 Q1982.6683,117.5051 1982.3027,117.3738 Q1981.9371,117.2426 1981.5621,117.2426 Q1981.1027,117.2426 1980.7183,117.4395 Q1980.3433,117.6363 1980.0433,118.0863 Q1979.7527,118.5363 1979.7527,119.1551 L1979.7527,119.8113 Q1979.7527,120.552 1980.2871,121.0488 Q1980.8214,121.5363 1981.7777,121.5363 Q1982.3402,121.5363 1982.7339,121.3863 Q1982.9683,121.2926 1983.2214,121.0301 Q1983.3808,120.8707 1983.4652,120.8238 Q1983.5589,120.777 1983.6808,120.777 Q1983.8777,120.777 1984.0277,120.9363 Q1984.1871,121.0863 1984.1871,121.2926 Q1984.1871,121.4988 1983.9808,121.7426 Q1983.6808,122.0895 1983.2027,122.2863 Q1982.5558,122.5582 1981.7777,122.5582 Q1980.8683,122.5582 1980.1464,122.1832 Q1979.5558,121.8832 1979.1433,121.2457 Q1978.7308,120.5988 1978.7308,119.8301 L1978.7308,119.1363 Q1978.7308,118.3395 1979.0964,117.6551 Q1979.4714,116.9613 1980.1277,116.5957 Q1980.7839,116.2207 1981.5246,116.2207 Q1981.9652,116.2207 1982.3496,116.3238 Q1982.7433,116.4176 1983.0714,116.6332 Z " fill="#000000"/><text fill="#000000" font-family="sans-serif" font-size="8.4" lengthAdjust="spacing" textLength="57.4178" x="1990.5258" y="122.5863">TaskThreeFour</text><line style="stroke:#181818;stroke-width:0.3;" x1="1969.8" x2="2052.3557" y1="128.7082" y2="128.7082"/><line style="stroke:#181818;stroke-width:0.3;" x1="1969.8" x2="2052.3557" y1="133.5082" y2="133.5082"/><ellipse cx="1975.8" cy="142.3945" fill="#84BE84" rx="1.8" ry="1.8" style="stroke:#038048;stroke-width:0.6;"/><text fill="#000000" font-family="sans-serif" font-size="8.4" lengthAdjust="spacing" text-decoration="underline" textLength="68.1557" x="1981.2" y="144.9727">void main(String[])</text></g><!--class TimeUnits--><g class="entity" data-entity="TimeUnits" data-source-line="188" data-uid="ent0029" id="entity_TimeUnits"><rect fill="#F1F1F1" height="95.8359" rx="1.5" ry="1.5" style="stroke:#181818;stroke-width:0.3;" width="57.0041" x="2101.5" y="81.6082"/><ellipse cx="2110.5" cy="91.2082" fill="#EB937F" rx="6.6" ry="6.6" style="stroke:#181818;stroke-width:0.6;"/><path d="M2109.8156,91.6863 L2109.8156,93.1863 L2112.4125,93.1863 L2112.4125,92.6332 Q2112.4125,92.2676 2112.5531,92.1082 Q2112.7031,91.9488 2112.9281,91.9488 Q2113.1531,91.9488 2113.2938,92.1082 Q2113.4344,92.2676 2113.4344,92.6332 L2113.4344,94.2082 L2108.6344,94.2082 Q2108.2594,94.2082 2108.1,94.0676 Q2107.95,93.927 2107.95,93.6926 Q2107.95,93.4676 2108.1094,93.327 Q2108.2687,93.1863 2108.6344,93.1863 L2108.7938,93.1863 L2108.7938,89.1926 L2108.6344,89.1926 Q2108.2594,89.1926 2108.1,89.052 Q2107.95,88.9113 2107.95,88.677 Q2107.95,88.452 2108.1,88.3113 Q2108.2594,88.1707 2108.6344,88.1707 L2113.2094,88.1707 L2113.2094,89.727 Q2113.2094,90.0926 2113.0688,90.252 Q2112.9375,90.402 2112.7031,90.402 Q2112.4781,90.402 2112.3375,90.252 Q2112.1969,90.0926 2112.1969,89.727 L2112.1969,89.1926 L2109.8156,89.1926 L2109.8156,90.6645 L2110.7062,90.6645 Q2110.7062,90.2707 2110.7813,90.1582 Q2110.9406,89.9145 2111.2219,89.9145 Q2111.4469,89.9145 2111.5875,90.0738 Q2111.7281,90.2238 2111.7281,90.5895 L2111.7281,91.7707 Q2111.7281,92.0988 2111.6531,92.2113 Q2111.4938,92.4457 2111.2219,92.4457 Q2110.9406,92.4457 2110.7813,92.202 Q2110.7062,92.0895 2110.7062,91.6863 L2109.8156,91.6863 Z " fill="#000000"/><text fill="#000000" font-family="sans-serif" font-size="8.4" lengthAdjust="spacing" textLength="37.8041" x="2118.9" y="94.6863">TimeUnits</text><line style="stroke:#181818;stroke-width:0.3;" x1="2102.1" x2="2157.9041" y1="100.8082" y2="100.8082"/><ellipse cx="2108.1" cy="109.6945" fill="none" rx="1.8" ry="1.8" style="stroke:#038048;stroke-width:0.6;"/><text fill="#000000" font-family="sans-serif" font-size="8.4" lengthAdjust="spacing" textLength="32.6895" x="2113.5" y="112.2727">Seconds</text><ellipse cx="2108.1" cy="120.8672" fill="none" rx="1.8" ry="1.8" style="stroke:#038048;stroke-width:0.6;"/><text fill="#000000" font-family="sans-serif" font-size="8.4" lengthAdjust="spacing" textLength="29.4123" x="2113.5" y="123.4453">Minutes</text><ellipse cx="2108.1" cy="132.0398" fill="none" rx="1.8" ry="1.8" style="stroke:#038048;stroke-width:0.6;"/><text fill="#000000" font-family="sans-serif" font-size="8.4" lengthAdjust="spacing" textLength="22.4068" x="2113.5" y="134.618">Hours</text><ellipse cx="2108.1" cy="143.2125" fill="none" rx="1.8" ry="1.8" style="stroke:#038048;stroke-width:0.6;"/><text fill="#000000" font-family="sans-serif" font-size="8.4" lengthAdjust="spacing" textLength="19.1379" x="2113.5" y="145.7906">Days</text><ellipse cx="2108.1" cy="154.3852" fill="none" rx="1.8" ry="1.8" style="stroke:#038048;stroke-width:0.6;"/><text fill="#000000" font-family="sans-serif" font-size="8.4" lengthAdjust="spacing" textLength="27.5461" x="2113.5" y="156.9633">Months</text><ellipse cx="2108.1" cy="165.5578" fill="none" rx="1.8" ry="1.8" style="stroke:#038048;stroke-width:0.6;"/><text fill="#000000" font-family="sans-serif" font-size="8.4" lengthAdjust="spacing" textLength="21.9434" x="2113.5" y="168.1359">Years</text><line style="stroke:#181818;stroke-width:0.3;" x1="2102.1" x2="2157.9041" y1="172.6441" y2="172.6441"/></g><!--class BookStore--><g class="entity" data-entity="BookStore" data-source-line="203" data-uid="ent0032" id="entity_BookStore"><rect fill="#F1F1F1" height="207.5625" rx="1.5" ry="1.5" style="stroke:#181818;stroke-width:0.3;" width="209.3619" x="2192.7" y="25.8082"/><ellipse cx="2275.2193" cy="35.4082" fill="#ADD1B2" rx="6.6" ry="6.6" style="stroke:#181818;stroke-width:0.6;"/><path d="M2276.8787,32.9332 Q2276.9725,32.802 2277.085,32.7363 Q2277.1975,32.6707 2277.3287,32.6707 Q2277.5537,32.6707 2277.6943,32.8301 Q2277.835,32.9801 2277.835,33.3457 L2277.835,34.2176 Q2277.835,34.5832 2277.6943,34.7426 Q2277.5537,34.902 2277.3287,34.902 Q2277.1225,34.902 2277.0006,34.7801 Q2276.8787,34.6676 2276.8131,34.3582 Q2276.785,34.1426 2276.6725,34.0301 Q2276.4756,33.8051 2276.11,33.6738 Q2275.7443,33.5426 2275.3693,33.5426 Q2274.91,33.5426 2274.5256,33.7395 Q2274.1506,33.9363 2273.8506,34.3863 Q2273.56,34.8363 2273.56,35.4551 L2273.56,36.1113 Q2273.56,36.852 2274.0943,37.3488 Q2274.6287,37.8363 2275.585,37.8363 Q2276.1475,37.8363 2276.5412,37.6863 Q2276.7756,37.5926 2277.0287,37.3301 Q2277.1881,37.1707 2277.2725,37.1238 Q2277.3662,37.077 2277.4881,37.077 Q2277.685,37.077 2277.835,37.2363 Q2277.9943,37.3863 2277.9943,37.5926 Q2277.9943,37.7988 2277.7881,38.0426 Q2277.4881,38.3895 2277.01,38.5863 Q2276.3631,38.8582 2275.585,38.8582 Q2274.6756,38.8582 2273.9537,38.4832 Q2273.3631,38.1832 2272.9506,37.5457 Q2272.5381,36.8988 2272.5381,36.1301 L2272.5381,35.4363 Q2272.5381,34.6395 2272.9037,33.9551 Q2273.2787,33.2613 2273.935,32.8957 Q2274.5912,32.5207 2275.3318,32.5207 Q2275.7725,32.5207 2276.1568,32.6238 Q2276.5506,32.7176 2276.8787,32.9332 Z " fill="#000000"/><text fill="#000000" font-family="sans-serif" font-size="8.4" lengthAdjust="spacing" textLength="39.2232" x="2287.5193" y="38.8863">BookStore</text><line style="stroke:#181818;stroke-width:0.3;" x1="2193.3" x2="2401.4619" y1="45.0082" y2="45.0082"/><rect fill="none" height="3.6" style="stroke:#C82930;stroke-width:0.6;" width="3.6" x="2197.5" y="52.0945"/><text fill="#000000" font-family="sans-serif" font-size="8.4" lengthAdjust="spacing" textLength="45.2895" x="2204.7" y="56.4727">String name</text><rect fill="none" height="3.6" style="stroke:#C82930;stroke-width:0.6;" width="3.6" x="2197.5" y="63.2672"/><text fill="#000000" font-family="sans-serif" font-size="8.4" lengthAdjust="spacing" textLength="106.0008" x="2204.7" y="67.6453">BookManager bookManager</text><rect fill="none" height="3.6" style="stroke:#C82930;stroke-width:0.6;" width="3.6" x="2197.5" y="74.4398"/><text fill="#000000" font-family="sans-serif" font-size="8.4" lengthAdjust="spacing" textLength="109.7209" x="2204.7" y="78.818">OrderManager orderManager</text><rect fill="none" height="3.6" style="stroke:#C82930;stroke-width:0.6;" width="3.6" x="2197.5" y="85.6125"/><text fill="#000000" font-family="sans-serif" font-size="8.4" lengthAdjust="spacing" textLength="127.9441" x="2204.7" y="89.9906">RequestManager requestManager</text><line style="stroke:#181818;stroke-width:0.3;" x1="2193.3" x2="2401.4619" y1="94.4988" y2="94.4988"/><ellipse cx="2199.3" cy="103.3852" fill="#84BE84" rx="1.8" ry="1.8" style="stroke:#038048;stroke-width:0.6;"/><text fill="#000000" font-family="sans-serif" font-size="8.4" lengthAdjust="spacing" textLength="63.9557" x="2204.7" y="105.9633">String getName()</text><ellipse cx="2199.3" cy="114.5578" fill="#84BE84" rx="1.8" ry="1.8" style="stroke:#038048;stroke-width:0.6;"/><text fill="#000000" font-family="sans-serif" font-size="8.4" lengthAdjust="spacing" textLength="115.7912" x="2204.7" y="117.1359">Request createRequest(String)</text><ellipse cx="2199.3" cy="125.7305" fill="#84BE84" rx="1.8" ry="1.8" style="stroke:#038048;stroke-width:0.6;"/><text fill="#000000" font-family="sans-serif" font-size="8.4" lengthAdjust="spacing" textLength="138.6533" x="2204.7" y="128.3086">Order createOrder(String,long,String)</text><ellipse cx="2199.3" cy="136.9031" fill="#84BE84" rx="1.8" ry="1.8" style="stroke:#038048;stroke-width:0.6;"/><text fill="#000000" font-family="sans-serif" font-size="8.4" lengthAdjust="spacing" textLength="120.4383" x="2204.7" y="139.4813">Order createOrder(String,String)</text><ellipse cx="2199.3" cy="148.0758" fill="#84BE84" rx="1.8" ry="1.8" style="stroke:#038048;stroke-width:0.6;"/><text fill="#000000" font-family="sans-serif" font-size="8.4" lengthAdjust="spacing" textLength="122.8049" x="2204.7" y="150.6539">Optional&lt;Book&gt; findBook(String)</text><ellipse cx="2199.3" cy="159.2484" fill="#84BE84" rx="1.8" ry="1.8" style="stroke:#038048;stroke-width:0.6;"/><text fill="#000000" font-family="sans-serif" font-size="8.4" lengthAdjust="spacing" textLength="193.7619" x="2204.7" y="161.8266">Book addBook(String,String,String,long,BigDecimal)</text><ellipse cx="2199.3" cy="170.4211" fill="#84BE84" rx="1.8" ry="1.8" style="stroke:#038048;stroke-width:0.6;"/><text fill="#000000" font-family="sans-serif" font-size="8.4" lengthAdjust="spacing" textLength="169.4848" x="2204.7" y="172.9992">Book addBook(String,String,long,BigDecimal)</text><ellipse cx="2199.3" cy="181.5938" fill="#84BE84" rx="1.8" ry="1.8" style="stroke:#038048;stroke-width:0.6;"/><text fill="#000000" font-family="sans-serif" font-size="8.4" lengthAdjust="spacing" textLength="151.2697" x="2204.7" y="184.1719">Book addBook(String,String,BigDecimal)</text><ellipse cx="2199.3" cy="192.7664" fill="#84BE84" rx="1.8" ry="1.8" style="stroke:#038048;stroke-width:0.6;"/><text fill="#000000" font-family="sans-serif" font-size="8.4" lengthAdjust="spacing" textLength="175.5469" x="2204.7" y="195.3445">Book addBook(String,String,String,BigDecimal)</text><ellipse cx="2199.3" cy="203.9391" fill="#84BE84" rx="1.8" ry="1.8" style="stroke:#038048;stroke-width:0.6;"/><text fill="#000000" font-family="sans-serif" font-size="8.4" lengthAdjust="spacing" textLength="124.1994" x="2204.7" y="206.5172">Optional&lt;Book&gt; removeBook(int)</text><ellipse cx="2199.3" cy="215.1117" fill="#84BE84" rx="1.8" ry="1.8" style="stroke:#038048;stroke-width:0.6;"/><text fill="#000000" font-family="sans-serif" font-size="8.4" lengthAdjust="spacing" textLength="144.7523" x="2204.7" y="217.6898">Optional&lt;Request&gt; cancelRequest(int)</text><ellipse cx="2199.3" cy="226.2844" fill="#84BE84" rx="1.8" ry="1.8" style="stroke:#038048;stroke-width:0.6;"/><text fill="#000000" font-family="sans-serif" font-size="8.4" lengthAdjust="spacing" textLength="168.0697" x="2204.7" y="228.8625">Optional&lt;Order&gt; closeOrder(int,OrderStatus)</text></g><!--reverse link Archive to OrderArchive--><g class="link" data-entity-1="Archive" data-entity-2="OrderArchive" data-source-line="232" data-uid="lnk35" id="link_Archive_OrderArchive"><path codeLine="232" d="M927.6977,179.4857 C887.0957,217.0217 834.894,265.2802 788.244,308.4082" fill="none" id="Archive-backto-OrderArchive" style="stroke:#181818;stroke-width:0.6;stroke-dasharray:4.2,4.2;"/><polygon fill="none" points="935.628,172.1542,925.2539,176.8422,930.1415,182.1291,935.628,172.1542" style="stroke:#181818;stroke-width:0.6;"/></g><!--reverse link Archive to BookArchive--><g class="link" data-entity-1="Archive" data-entity-2="BookArchive" data-source-line="233" data-uid="lnk36" id="link_Archive_BookArchive"><path codeLine="233" d="M981,182.9542 C981,223.8742 981,275.4622 981,319.7602" fill="none" id="Archive-backto-BookArchive" style="stroke:#181818;stroke-width:0.6;stroke-dasharray:4.2,4.2;"/><polygon fill="none" points="981,172.1542,977.4,182.9542,984.6,182.9542,981,172.1542" style="stroke:#181818;stroke-width:0.6;"/></g><!--reverse link Catalog to RequestCatalog--><g class="link" data-entity-1="Catalog" data-entity-2="RequestCatalog" data-source-line="234" data-uid="lnk37" id="link_Catalog_RequestCatalog"><path codeLine="234" d="M1638.699,169.17 C1615.131,197.196 1586.508,231.6322 1556.4,269.4082 C1540.494,289.3642 1523.196,311.8102 1508.838,330.6622" fill="none" id="Catalog-backto-RequestCatalog" style="stroke:#181818;stroke-width:0.6;stroke-dasharray:4.2,4.2;"/><polygon fill="none" points="1645.65,160.9042,1635.9437,166.853,1641.4543,171.487,1645.65,160.9042" style="stroke:#181818;stroke-width:0.6;"/></g><!--reverse link Archive to RequestArchive--><g class="link" data-entity-1="Archive" data-entity-2="RequestArchive" data-source-line="235" data-uid="lnk38" id="link_Archive_RequestArchive"><path codeLine="235" d="M1035.1565,179.2666 C1080.3125,220.1686 1141.236,275.3542 1190.19,319.6942" fill="none" id="Archive-backto-RequestArchive" style="stroke:#181818;stroke-width:0.6;stroke-dasharray:4.2,4.2;"/><polygon fill="none" points="1027.152,172.0162,1032.7397,181.9348,1037.5733,176.5984,1027.152,172.0162" style="stroke:#181818;stroke-width:0.6;"/></g><!--reverse link Catalog to BookCatalog--><g class="link" data-entity-1="Catalog" data-entity-2="BookCatalog" data-source-line="236" data-uid="lnk39" id="link_Catalog_BookCatalog"><path codeLine="236" d="M1671.6,171.7102 C1671.6,211.5802 1671.6,271.0222 1671.6,319.5982" fill="none" id="Catalog-backto-BookCatalog" style="stroke:#181818;stroke-width:0.6;stroke-dasharray:4.2,4.2;"/><polygon fill="none" points="1671.6,160.9102,1668,171.7102,1675.2,171.7102,1671.6,160.9102" style="stroke:#181818;stroke-width:0.6;"/></g><!--reverse link Catalog to OrderCatalog--><g class="link" data-entity-1="Catalog" data-entity-2="OrderCatalog" data-source-line="237" data-uid="lnk40" id="link_Catalog_OrderCatalog"><path codeLine="237" d="M1705.4079,169.0103 C1729.3899,196.8143 1758.138,231.0382 1787.4,269.4082 C1804.026,291.2062 1821.654,316.4362 1835.304,336.4942" fill="none" id="Catalog-backto-OrderCatalog" style="stroke:#181818;stroke-width:0.6;stroke-dasharray:4.2,4.2;"/><polygon fill="none" points="1698.354,160.8322,1702.6819,171.3617,1708.134,166.659,1698.354,160.8322" style="stroke:#181818;stroke-width:0.6;"/></g><!--SRC=[hLTVRoCd47_tfzX7Hqdy2QAJxEHEjTGafzfzgAggmkoSZMuNN63JMjVBPoyCiC0kw_Ebzs8FCyCm_9X_InkYL4M5XCMph45MNsQt5L8RJNIdAeL_XicuhbXjY4RmlMLBlMKj10OLxR41pGJtNAk_4-BpskxPQCcCql4WE3nrxGwaOQxO_W4eQqbJrT2m5v2dZv9Hc5rd7kn1Esf-PIJUac5-ZCPGyY9ONQbUEJ5XfTOTisbTesvoj64-fAVF4-qL-f-UguKZa8SNT-uvC3BkVOQ84NsTpMR0kxPIGke_BQKMly1V7IYzCHm3_NLLBLlHSRrK57Xjpa5MSpoG7IHCOudYmn593yPrztPBjy0dN4f9JZypfU-MEwKbeVgH71SRPbrwpxKytQsvXZt86zpwxbqmrGDfF5gTF8g6ll9FIj0_P4EzTbUpDxwnFrVPoSwoXM9ItHzsxBGxoNAUZnOpqeJz4bhn0dDpU4dwYV4wo9mjypnwsJJu5YLddCm-HewXVUotGMXtJY9eXGx0vBAMcTq6JKnTrGallQdJBboq9PmOT_6YZux6YzhrFT6a4NlCM4zxIO1a5-coRvOwuxgbLgSjqmtCNGvX8XfkHMgtsR5lyZ-CbfYlawZ5uszz-dAGH0FcxstCoavAu9Yj9ctROn4XdvKfI9uLS9BPCie3MZ9RfZvxHGUANunWAocDmVE2Yaem5mssednipa6LdLf0grIe-aBWojHxNbi8ipg5vJFZkF9Rg5i1QBIQmeoC0B985a4M01R9Og8i8Db3YztD8TKBN70L0CjAJrJFUifPu537GuSLmFKon6xDqOubduGEgnuRRCRXQPFGcsp8lZNP1CK8YP5HxA23FfcfZZjbxBUhO7-Y7yOqekx95eESiNSn9RGlcqbK8g6A8MjEJaAwhw1UVYxCfxFAsaJXk0iCylZx6a4uOAeN9Dt-nrtcqhwGtdxO6eJSB-0VOc-qs1BrUNkG01z49p5YlzYOO_IhCzyInlsB_Fu76Xc7V1v_6FNFHvCfjQNk6w4CbGSyDeBGZOQX7e8DexjVaauVX8ph6XIL3F491L-7Cf-FcqSSC_iKkauFdHetO-WF4YZkFPSzItHsm7o87cUZOzgTXiDg758lIS6qjm_pptLFMpPKUO0mrMaZcdeU7RYndltAcSRwbpXcd00gUAqcb4TDUoAjtp8O5R8vN3zh9yFx-oAFdKJzW54qyyCG83yH2drbYINbDHwrlJAhtj0sFoANn3n_7UNvQ_9yspp3eoC1b8Z7snn9xucfRxDiqJ-sItSV3fPyPBpJWEHFfgGWyK1EJYQuFY3r6n0ZAbQJz6iGZJ_1ttX6HoaePu-fbgcih2WTwih6KlZyFcKumK_KT13UHJgC6a4aaaLinq4gisMMta_4Vn9-Sr0R3IVfy7k1Nc646Gpc_tFaFhFf-xGlLYpgVsFoBxL7IZY5PchGzgbBRKkQcFDAqt3ugFFVxACFT8nmVNuO7a_CzgJPi5pS_RjO5B_ppsicdswpOUAZOdb8Esyq7uxEsqqwptd5j4R_1m00]--></g></svg>